<svg width="250" height="250" viewBox="0 0 250 250" fill="none" xmlns="http://www.w3.org/2000/svg">
<path d="M227.623 150.114C222.692 170.255 211.94 188.498 196.708 202.57C181.476 216.641 162.438 225.918 141.967 229.243C121.497 232.568 100.5 229.794 81.5961 221.268C62.6919 212.742 46.7164 198.84 35.662 181.296C24.6075 163.752 18.9633 143.343 19.4331 122.614C19.903 101.884 26.4661 81.7513 38.304 64.7263C50.142 47.7012 66.7309 34.5372 86.0021 26.8758C105.273 19.2144 126.374 17.3947 146.673 21.6435" stroke="white" stroke-width="3" stroke-miterlimit="10"/>
<path d="M205.439 145.208C201.475 160.975 192.963 175.228 180.96 186.196C168.958 197.163 153.995 204.36 137.934 206.892C121.873 209.424 105.421 207.179 90.6257 200.436C75.8304 193.694 63.3443 182.751 54.7207 168.968C46.097 155.186 41.7163 139.174 42.1235 122.922C42.5307 106.67 47.7078 90.8965 57.0109 77.5634C66.3139 64.2303 79.3323 53.926 94.4467 47.9323C109.561 41.9386 126.104 40.5199 142.019 43.8528" stroke="white" stroke-width="3" stroke-miterlimit="10"/>
<path d="M75.0128 105.545C71.2201 115.309 70.3712 125.97 72.571 136.211C74.7707 146.452 79.9227 155.824 87.3905 163.171C94.8584 170.517 104.315 175.515 114.592 177.548C124.87 179.581 135.517 178.559 145.22 174.609C154.923 170.659 163.257 163.954 169.191 155.322C175.125 146.69 178.4 136.509 178.611 126.036C178.823 115.564 175.962 105.259 170.381 96.3942C164.8 87.5295 156.744 80.4934 147.209 76.1551" stroke="white" stroke-width="3" stroke-miterlimit="10"/>
<path d="M152.759 106.929C156.261 112.317 158.118 118.607 158.104 125.032C158.089 131.457 156.204 137.739 152.678 143.111C149.152 148.483 144.139 152.712 138.249 155.282C132.359 157.852 125.848 158.652 119.511 157.584C113.174 156.516 107.285 153.626 102.563 149.268C97.8418 144.909 94.4916 139.27 92.9219 133.04C91.3523 126.809 91.6311 120.256 93.7243 114.182C95.8175 108.107 99.6346 102.773 104.709 98.8308" stroke="white" stroke-width="3" stroke-miterlimit="10"/>
</svg>
