<svg width="182" height="182" viewBox="0 0 182 182" fill="none" xmlns="http://www.w3.org/2000/svg">
<path d="M135.582 47.1945L47.1938 135.583M135.582 47.1945L143.836 55.4483M135.582 47.1945L126.702 38.3139M47.1938 135.583L38.3132 126.702M47.1938 135.583L55.4476 143.837M135.582 135.583L47.1939 47.1945M135.582 135.583L125.11 146.055M135.582 135.583L142.808 128.357M47.1939 47.1945L36.7213 57.6671M47.1939 47.1945L53.8963 40.4921M143.836 55.4483L179.776 91.3887L142.808 128.357M143.836 55.4483L124.566 74.7178M124.566 74.7178L141.701 91.8521L124.002 109.551M124.566 74.7178L107.432 57.5834M126.702 38.3139L91.388 3.00033L53.8963 40.4921M126.702 38.3139L107.432 57.5834M107.432 57.5834L90.0887 40.24L71.8665 58.4623M56.1166 108.899L38.7732 91.5555L54.6915 75.6373M56.1166 108.899L38.3132 126.702M56.1166 108.899L73.2509 126.033M38.3132 126.702L2.99968 91.3887L36.7213 57.6671M73.2509 126.033L90.3853 143.168L106.304 127.249M73.2509 126.033L55.4476 143.837M55.4476 143.837L91.388 179.777L125.11 146.055M36.7213 57.6671L54.6915 75.6373M54.6915 75.6373L71.8665 58.4623M106.304 127.249L125.11 146.055M106.304 127.249L124.002 109.551M53.8963 40.4921L71.8665 58.4623M124.002 109.551L142.808 128.357M158.857 90.5766L91.1553 22.8749L22.2459 91.7843L89.9476 159.486L158.857 90.5766Z" stroke="white" stroke-width="3"/>
</svg>
