<svg width="254" height="312" viewBox="0 0 254 312" fill="none" xmlns="http://www.w3.org/2000/svg">
<path d="M50.2402 1L81.4153 36.6864L50.2402 72.3729" stroke="white" stroke-width="2" stroke-miterlimit="10"/>
<path d="M50.2402 181.58L81.4153 217.267L50.2402 252.953" stroke="white" stroke-width="2" stroke-miterlimit="10"/>
<path d="M202.447 167.13L171.586 131.173L202.447 93.373" stroke="white" stroke-width="2" stroke-miterlimit="10"/>
<path d="M131.269 1L162.444 36.6864L131.269 72.3729" stroke="white" stroke-width="2" stroke-miterlimit="10"/>
<path d="M131.269 181.58L162.444 217.267L131.269 252.953" stroke="white" stroke-width="2" stroke-miterlimit="10"/>
<path d="M121.423 166.421L90.5611 130.464L121.423 92.4326" stroke="white" stroke-width="2" stroke-miterlimit="10"/>
<path d="M212.297 1L243.472 36.6864L212.297 72.3729" stroke="white" stroke-width="2" stroke-miterlimit="10"/>
<path d="M212.297 181.58L243.472 217.267L212.297 252.953" stroke="white" stroke-width="2" stroke-miterlimit="10"/>
<path d="M40.4023 165.716L9.54059 129.758L40.4023 90.5541" stroke="white" stroke-width="2" stroke-miterlimit="10"/>
<path d="M80.8848 36.9419H0" stroke="white" stroke-width="2"/>
<path d="M80.8848 217.522H0" stroke="white" stroke-width="2"/>
<path d="M171.976 131.115L253 131.824" stroke="white" stroke-width="2"/>
<path d="M161.77 36.9419H80.8848" stroke="white" stroke-width="2"/>
<path d="M161.77 217.522H80.8848" stroke="white" stroke-width="2"/>
<path d="M90.9556 130.407L171.979 131.115" stroke="white" stroke-width="2"/>
<path d="M242.654 36.9419H161.77" stroke="white" stroke-width="2"/>
<path d="M242.654 217.522H161.77" stroke="white" stroke-width="2"/>
<path d="M9.92724 129.701L90.9512 130.41" stroke="white" stroke-width="2"/>
<path d="M122.268 37.8823L51.7285 130.053" stroke="white" stroke-width="2"/>
<path d="M122.268 218.462L51.7285 310.633" stroke="white" stroke-width="2"/>
<path d="M206.914 37.8823L135.435 130.053" stroke="white" stroke-width="2"/>
<path d="M206.914 218.462L135.435 310.633" stroke="white" stroke-width="2"/>
</svg>
