<svg width="738" height="182" viewBox="0 0 738 182" fill="none" xmlns="http://www.w3.org/2000/svg">
<circle cx="270" cy="90.9474" r="89.4474" stroke="white" stroke-width="3"/>
<circle cx="647.053" cy="90.9474" r="89.4474" stroke="white" stroke-width="3"/>
<path d="M23.2899 1.51212C71.9985 2.313 111.237 42.0477 111.237 90.9472C111.237 139.847 71.9985 179.581 23.2899 180.382L23.2899 1.51212Z" stroke="white" stroke-width="3"/>
<path d="M400.342 1.51238C448.513 2.32167 487.342 42.0386 487.342 90.9472C487.342 139.856 448.513 179.573 400.342 180.382L400.342 1.51238Z" stroke="white" stroke-width="3"/>
<path d="M167.132 180.382C118.423 179.582 79.1846 139.847 79.1846 90.9474C79.1846 42.0479 118.423 2.31321 167.132 1.51232L167.132 180.382Z" stroke="white" stroke-width="3"/>
<path d="M543.236 180.382C494.528 179.582 455.289 139.847 455.289 90.9474C455.289 42.0479 494.528 2.31321 543.236 1.51232V180.382Z" stroke="white" stroke-width="3"/>
<path d="M1.50036 14.7779C42.8834 15.5771 76.1846 49.3734 76.1846 90.9476C76.1846 132.522 42.8834 166.318 1.50034 167.117L1.50036 14.7779Z" stroke="white" stroke-width="3"/>
<path d="M378.552 14.7783C419.395 15.5873 452.289 49.3627 452.289 90.9476C452.289 132.533 419.395 166.308 378.552 167.117L378.552 14.7783Z" stroke="white" stroke-width="3"/>
<circle cx="270" cy="90.9474" r="67.6579" stroke="white" stroke-width="3"/>
<circle cx="647.052" cy="90.9474" r="67.6579" stroke="white" stroke-width="3"/>
<circle r="43.0263" transform="matrix(1 0 0 -1 270 90.9473)" stroke="white" stroke-width="3"/>
<circle r="43.0263" transform="matrix(1 0 0 -1 647.053 90.9473)" stroke="white" stroke-width="3"/>
</svg>
