<svg width="350" height="354" viewBox="0 0 350 354" fill="none" xmlns="http://www.w3.org/2000/svg">
<path d="M347.249 218.489C339.086 251.761 321.288 281.899 296.072 305.145C270.857 328.391 239.341 343.716 205.454 349.209C171.567 354.702 136.809 350.12 105.515 336.035C74.2208 321.949 47.775 298.984 29.4754 270.001C11.1758 241.019 1.83228 207.303 2.61006 173.058C3.38784 138.812 14.2525 105.553 33.8491 77.4278C53.4457 49.3024 80.9071 27.5554 112.809 14.8988C144.71 2.24215 179.64 -0.764009 213.243 6.25513" stroke="white" stroke-width="3" stroke-miterlimit="10"/>
<path d="M310.525 210.384C303.963 236.43 289.872 259.976 270.003 278.095C250.134 296.213 225.365 308.103 198.777 312.286C172.189 316.468 144.955 312.76 120.463 301.62C95.9705 290.481 75.3011 272.403 61.0254 249.635C46.7497 226.867 39.4979 200.414 40.172 173.566C40.8461 146.718 49.4163 120.66 64.8166 98.6342C80.2169 76.6079 101.768 59.5852 126.788 49.6836C151.809 39.7819 179.195 37.4383 205.54 42.9443" stroke="white" stroke-width="3" stroke-miterlimit="10"/>
<path d="M94.6158 144.865C88.3375 160.995 86.9323 178.607 90.5737 195.526C94.2151 212.444 102.744 227.927 115.106 240.063C127.468 252.199 143.123 260.456 160.136 263.814C177.149 267.173 194.775 265.485 210.838 258.959C226.9 252.434 240.695 241.357 250.518 227.097C260.342 212.836 265.764 196.017 266.114 178.717C266.464 161.417 261.727 144.393 252.489 129.748C243.25 115.104 229.915 103.48 214.13 96.3133" stroke="white" stroke-width="3" stroke-miterlimit="10"/>
<path d="M223.316 147.142C229.113 156.042 232.188 166.433 232.164 177.048C232.14 187.662 229.02 198.04 223.183 206.914C217.346 215.788 209.046 222.775 199.296 227.021C189.546 231.267 178.768 232.588 168.277 230.824C157.787 229.059 148.039 224.285 140.222 217.085C132.406 209.884 126.86 200.569 124.262 190.276C121.663 179.983 122.125 169.158 125.59 159.123C129.055 149.087 135.374 140.275 143.775 133.763" stroke="white" stroke-width="3" stroke-miterlimit="10"/>
</svg>
