<svg width="410" height="427" viewBox="0 0 410 427" fill="none" xmlns="http://www.w3.org/2000/svg">
<path opacity="0.3" d="M198.236 168.223C214.193 170.86 225.438 172.683 243.095 175.939C257.92 178.672 272.791 181.271 287.471 184.451C330.309 193.728 309.521 195.396 303.308 182.418C298.885 173.179 292.506 163.768 293.442 153.206C296.698 116.479 320.188 94.993 340.793 65.1023C345.91 57.6802 352.985 50.6634 355.018 42.2478C355.724 39.3264 350.476 37.4265 347.362 37.9085C340.918 38.9063 335.037 42.8759 329.315 46.227C313.813 55.3062 296.997 69.5039 284.771 81.8999C277.548 89.2227 269.535 96.3361 264.661 105.114C254.883 122.725 263.428 128.239 280.272 131.526C289.702 133.366 299.838 132.086 309.635 132.253C316.225 132.366 323.219 130.754 329.43 132.364C331.044 132.782 327.984 135.743 326.441 136.61C320.528 139.936 314.028 142.046 307.746 144.56C294.691 149.783 281.541 154.736 268.401 159.712" stroke="#252525" stroke-opacity="0.7" stroke-width="2" stroke-linecap="round"/>
<path opacity="0.3125" d="M186.189 174.23C202.35 174.095 213.734 173.964 231.677 174.146C246.742 174.299 261.829 174.312 276.83 174.929C320.605 176.73 300.448 181.936 292.053 170.212C286.077 161.866 278.147 153.685 277.21 143.117C273.954 106.367 293.285 81.1689 308.3 48.1828C312.029 39.992 317.755 31.8651 318.275 23.2238C318.456 20.224 312.959 19.2512 309.981 20.2597C303.816 22.3473 298.729 27.2667 293.689 31.5497C280.035 43.1532 265.988 60.0256 256.14 74.3361C250.322 82.7899 243.689 91.1729 240.438 100.658C233.916 119.688 243.293 123.658 260.441 124.01C270.041 124.207 279.788 121.209 289.456 119.694C295.959 118.676 302.556 115.889 308.949 116.411C310.611 116.547 308.121 119.989 306.756 121.108C301.523 125.399 295.5 128.592 289.762 132.145C277.837 139.53 265.771 146.664 253.719 153.82" stroke="#252525" stroke-opacity="0.7" stroke-width="1.95833" stroke-linecap="round"/>
<path opacity="0.325" d="M175.626 182.099C191.515 179.199 202.7 177.121 220.399 174.228C235.259 171.799 250.116 169.228 264.995 167.268C308.412 161.546 289.482 170.123 279.153 160.017C271.8 152.823 262.552 146.125 259.77 135.88C250.096 100.253 264.694 72.1337 273.673 37.0846C275.903 28.3815 280.111 19.3992 279.102 10.802C278.751 7.81746 273.168 7.80082 270.413 9.3037C264.711 12.4148 260.568 18.1294 256.359 23.2094C244.957 36.9722 234.097 55.9899 226.919 71.7662C222.679 81.086 217.623 90.4757 216.092 100.372C213.019 120.225 222.95 122.528 239.896 119.938C249.383 118.489 258.453 113.868 267.705 110.722C273.928 108.605 279.934 104.731 286.32 104.151C287.98 104 286.134 107.815 284.987 109.151C280.59 114.272 275.222 118.447 270.197 122.929C259.756 132.241 249.131 141.332 238.524 150.44" stroke="#252525" stroke-opacity="0.7" stroke-width="1.91667" stroke-linecap="round"/>
<path opacity="0.3375" d="M166.849 191.548C181.996 185.971 192.653 182.011 209.585 176.131C223.8 171.195 237.989 166.12 252.306 161.642C294.084 148.572 276.938 160.254 264.982 152.082C256.472 146.265 246.181 141.261 241.638 131.659C225.84 98.2679 235.28 68.1026 237.964 32.0834C238.631 23.1395 241.198 13.5818 238.692 5.29686C237.822 2.42079 232.317 3.36127 229.867 5.31183C224.794 9.34969 221.717 15.6816 218.463 21.4003C209.648 36.8937 202.29 57.4641 197.991 74.2145C195.452 84.1098 192.121 94.2135 192.352 104.211C192.815 124.269 203.007 124.833 219.251 119.381C228.344 116.329 236.469 110.23 245.033 105.549C250.793 102.4 256.03 97.5602 262.221 95.8948C263.83 95.4621 262.682 99.5313 261.787 101.042C258.354 106.833 253.799 111.861 249.635 117.131C240.983 128.081 232.113 138.845 223.262 149.624" stroke="#252525" stroke-opacity="0.7" stroke-width="1.875" stroke-linecap="round"/>
<path opacity="0.35" d="M160.118 202.247C174.076 194.163 183.89 188.439 199.556 179.751C212.708 172.456 225.809 165.03 239.142 158.168C278.048 138.144 263.189 152.573 249.965 146.593C240.552 142.336 229.526 139.185 223.362 130.526C201.925 100.415 205.942 69.1389 202.27 33.269C201.358 24.3621 202.212 14.5254 198.288 6.81136C196.925 4.13347 191.661 6.00367 189.587 8.34208C185.294 13.1828 183.37 19.936 181.165 26.1168C175.19 42.8619 171.543 64.3476 170.243 81.5527C169.474 91.7164 167.963 102.221 169.944 112.01C173.92 131.648 184.069 130.452 199.131 122.302C207.563 117.74 214.505 110.348 222.129 104.275C227.256 100.191 231.571 94.5329 237.385 91.8322C238.895 91.1305 238.478 95.3279 237.86 96.967C235.491 103.25 231.88 108.974 228.699 114.87C222.089 127.121 215.23 139.227 208.393 151.343" stroke="#252525" stroke-opacity="0.7" stroke-width="1.83333" stroke-linecap="round"/>
<path opacity="0.3625" d="M155.618 213.818C167.977 203.469 176.659 196.152 190.597 184.915C202.299 175.481 213.927 165.926 225.882 156.885C260.768 130.503 248.63 147.242 234.538 143.646C224.506 141.087 213.076 139.891 205.48 132.447C179.066 106.558 177.563 75.1364 167.669 40.527C165.212 31.9331 164.336 22.121 159.115 15.2186C157.303 12.8224 152.437 15.5674 150.799 18.2225C147.409 23.7189 146.691 30.6856 145.596 37.1386C142.628 54.6211 142.785 76.3598 144.51 93.4882C145.528 103.607 145.873 114.188 149.54 123.464C156.895 142.074 166.699 139.149 180.136 128.544C187.658 122.608 193.215 114.148 199.675 106.867C204.021 101.97 207.289 95.6676 212.553 92.0118C213.92 91.062 214.242 95.2579 213.919 96.975C212.68 103.556 210.118 109.803 208.01 116.144C203.629 129.321 198.978 142.397 194.35 155.481" stroke="#252525" stroke-opacity="0.7" stroke-width="1.79167" stroke-linecap="round"/>
<path opacity="0.375" d="M153.469 225.864C163.865 213.559 171.161 204.868 182.961 191.417C192.868 180.124 202.682 168.724 212.908 157.774C242.747 125.819 233.68 144.362 219.146 143.271C208.8 142.495 197.312 143.3 188.52 137.303C157.945 116.45 150.993 85.8472 135.206 53.5665C131.286 45.5509 128.714 36.065 122.36 30.1894C120.154 28.1498 115.829 31.6888 114.675 34.5804C112.286 40.5661 112.79 47.5333 112.832 54.0613C112.945 71.7471 116.883 93.072 121.566 109.597C124.332 119.36 126.514 129.693 131.747 138.169C142.245 155.174 151.411 150.603 162.827 137.86C169.218 130.727 173.23 121.455 178.339 113.184C181.775 107.622 183.904 100.865 188.463 96.3627C189.647 95.1928 190.695 99.2585 190.675 101.001C190.597 107.68 189.156 114.259 188.179 120.853C186.149 134.554 183.834 148.203 181.543 161.856" stroke="#252525" stroke-opacity="0.7" stroke-width="1.75" stroke-linecap="round"/>
<path opacity="0.3875" d="M153.731 237.97C161.86 224.074 167.556 214.268 176.872 199.003C184.693 186.186 192.405 173.282 200.6 160.747C224.515 124.167 218.778 143.958 204.246 145.416C193.9 146.454 182.701 149.244 172.985 144.884C139.199 129.722 127.038 100.873 105.867 71.9141C100.609 64.7232 96.4279 55.8537 89.1396 51.1883C86.6095 49.5688 82.9537 53.7976 82.3154 56.8385C80.9941 63.1336 82.6984 69.8892 83.8702 76.2938C87.0448 93.6454 94.6252 113.906 102.109 129.322C106.529 138.429 110.472 148.2 117.105 155.614C130.411 170.49 138.666 164.405 147.725 149.902C152.797 141.783 155.151 131.978 158.761 122.966C161.189 116.904 162.12 109.897 165.839 104.681C166.805 103.326 168.543 107.137 168.825 108.852C169.906 115.426 169.623 122.139 169.801 128.785C170.17 142.596 170.249 156.406 170.353 170.214" stroke="#252525" stroke-opacity="0.7" stroke-width="1.70833" stroke-linecap="round"/>
<path opacity="0.4" d="M156.379 249.718C162.004 234.645 165.933 224.015 172.492 207.389C178 193.429 183.383 179.403 189.308 165.654C206.596 125.535 204.349 145.983 190.261 149.955C180.233 152.783 169.665 157.482 159.327 154.897C123.378 145.906 106.406 119.688 80.5244 94.9368C74.0977 88.7907 68.4428 80.8074 60.4475 77.4977C57.672 76.3488 54.7941 81.1426 54.6887 84.2419C54.4704 90.6577 57.3166 96.9971 59.5769 103.085C65.7007 119.578 76.6729 138.158 86.7143 151.997C92.6462 160.172 98.2209 169.082 106.043 175.207C121.736 187.497 128.832 180.075 135.27 164.242C138.874 155.379 139.506 145.335 141.514 135.848C142.864 129.469 142.574 122.422 145.345 116.647C146.065 115.147 148.437 118.587 149.01 120.223C151.21 126.492 152.088 133.138 153.409 139.637C156.154 153.141 158.613 166.695 161.097 180.243" stroke="#252525" stroke-opacity="0.7" stroke-width="1.66667" stroke-linecap="round"/>
<path opacity="0.4125" d="M161.314 260.692C164.272 244.888 166.32 233.749 169.933 216.254C172.966 201.566 175.865 186.833 179.346 172.279C189.503 129.807 190.799 150.302 177.59 156.679C168.187 161.218 158.573 167.691 147.934 166.963C110.941 164.432 89.7008 141.637 59.9274 121.846C52.5344 116.932 45.5868 110.077 37.1341 108.226C34.1998 107.583 32.1854 112.8 32.6138 115.866C33.5006 122.211 37.3961 127.943 40.6707 133.531C49.5424 148.67 63.5537 165.01 75.8325 176.852C83.0862 183.847 90.1138 191.628 98.8793 196.277C116.465 205.605 122.187 197.064 125.816 180.371C127.848 171.026 126.746 161.041 127.096 151.364C127.332 144.855 125.836 137.978 127.576 131.816C128.028 130.215 130.958 133.181 131.805 134.688C135.05 140.465 137.058 146.844 139.477 153C144.504 165.794 149.257 178.686 154.033 191.569" stroke="#252525" stroke-opacity="0.7" stroke-width="1.625" stroke-linecap="round"/>
<path opacity="0.425" d="M168.381 270.506C168.587 254.438 168.697 243.121 169.259 225.275C169.731 210.292 170.063 195.289 170.999 180.359C173.73 136.793 178.519 156.726 166.596 165.322C158.108 171.441 149.744 179.5 139.136 180.655C102.25 184.67 77.4148 165.981 44.6857 151.748C36.5587 148.214 28.538 142.691 19.8918 142.357C16.8903 142.241 15.7994 147.728 16.7467 150.668C18.7078 156.754 23.5286 161.708 27.7128 166.629C39.0487 179.961 55.655 193.571 69.7834 203.062C78.1297 208.668 86.3878 215.086 95.8218 218.118C114.749 224.202 118.924 214.793 119.639 197.734C120.04 188.183 117.243 178.555 115.93 168.973C115.047 162.529 112.395 156.027 113.053 149.659C113.224 148.004 116.62 150.407 117.712 151.741C121.9 156.853 124.972 162.775 128.411 168.406C135.556 180.108 142.448 191.954 149.362 203.787" stroke="#252525" stroke-opacity="0.7" stroke-width="1.58333" stroke-linecap="round"/>
<path opacity="0.4375" d="M177.346 278.809C174.798 262.953 172.969 251.791 170.467 234.122C168.366 219.288 166.125 204.458 164.49 189.594C159.72 146.22 167.847 165.003 157.58 175.564C150.271 183.083 143.416 192.489 133.17 195.493C97.5409 205.938 69.8897 191.909 35.2296 183.656C26.6231 181.607 17.7808 177.581 9.211 178.774C6.23603 179.188 6.1013 184.782 7.53734 187.51C10.5101 193.157 16.1046 197.186 21.0666 201.294C34.5099 212.425 53.1898 222.903 68.7247 229.76C77.9018 233.81 87.1312 238.676 96.9385 240.001C116.614 242.659 119.114 232.661 116.898 215.739C115.657 206.266 111.255 197.278 108.322 188.076C106.35 181.887 102.625 175.952 102.183 169.567C102.068 167.907 105.823 169.675 107.127 170.796C112.125 175.093 116.163 180.382 120.513 185.321C129.551 195.584 138.365 206.035 147.198 216.468" stroke="#252525" stroke-opacity="0.7" stroke-width="1.54167" stroke-linecap="round"/>
<path opacity="0.45" d="M187.916 285.282C182.693 270.107 178.981 259.43 173.492 242.459C168.883 228.211 164.137 213.993 159.982 199.634C147.858 157.733 159.071 174.812 150.781 187.025C144.879 195.718 139.747 206.192 130.183 210.954C96.9236 227.512 67.3186 218.551 31.8085 216.514C22.991 216.008 13.6029 213.597 5.37691 216.279C2.5213 217.21 3.34727 222.746 5.22735 225.181C9.11928 230.222 15.3131 233.209 20.8984 236.385C36.0302 244.989 56.2013 252.028 72.6582 256.052C82.38 258.43 92.2929 261.601 102.168 261.182C121.979 260.341 122.725 250.051 117.645 233.766C114.801 224.649 108.931 216.567 104.469 208.015C101.468 202.264 96.787 197.071 95.2582 190.857C94.861 189.242 98.8569 190.324 100.332 191.199C105.985 194.553 110.864 199.055 115.989 203.157C126.639 211.681 137.1 220.428 147.577 229.156" stroke="#252525" stroke-opacity="0.7" stroke-width="1.5" stroke-linecap="round"/>
<path opacity="0.4625" d="M199.76 289.674C192.019 275.626 186.536 265.749 178.226 249.978C171.249 236.736 164.141 223.548 157.591 210.118C138.475 170.928 152.432 185.802 146.38 199.299C142.072 208.907 138.826 220.136 130.242 226.509C100.392 248.671 69.7516 245.029 34.4955 249.25C25.741 250.298 16.0983 249.567 8.47294 253.655C5.82582 255.074 7.58858 260.388 9.85499 262.46C14.5467 266.748 21.1481 268.606 27.1839 270.758C43.5362 276.588 64.5734 279.99 81.4417 281.071C91.4066 281.71 101.696 283.099 111.33 280.953C130.66 276.648 129.626 266.37 121.836 251.203C117.475 242.712 110.315 235.773 104.46 228.122C100.523 222.977 95.0295 218.678 92.4593 212.818C91.7915 211.296 95.9053 211.661 97.5055 212.266C103.639 214.581 109.208 218.165 114.95 221.311C126.883 227.847 138.669 234.638 150.467 241.406" stroke="#252525" stroke-opacity="0.7" stroke-width="1.45833" stroke-linecap="round"/>
<path opacity="0.475" d="M212.492 291.79C202.465 279.283 195.376 270.497 184.492 256.389C175.354 244.545 166.098 232.776 157.347 220.671C131.81 185.347 148.086 197.581 144.467 211.956C141.891 222.188 140.639 233.834 133.304 241.622C107.799 268.706 77.0677 270.468 43.158 280.795C34.7378 283.36 25.1384 284.324 18.3515 289.691C15.9955 291.553 18.6435 296.488 21.2272 298.136C26.5759 301.547 33.3819 302.226 39.6827 303.294C56.7531 306.187 78.0077 305.866 94.7665 303.985C104.667 302.873 115.014 302.444 124.11 298.643C142.359 291.017 139.571 281.057 129.302 267.455C123.554 259.84 115.324 254.245 108.253 247.721C103.497 243.333 97.3593 240.052 93.8239 234.719C92.9053 233.334 97.01 232.976 98.6863 233.292C105.111 234.505 111.2 237.067 117.384 239.167C130.234 243.53 142.985 248.169 155.742 252.784" stroke="#252525" stroke-opacity="0.7" stroke-width="1.41667" stroke-linecap="round"/>
<path opacity="0.4875" d="M225.711 291.509C213.697 280.911 205.212 273.473 192.08 261.445C181.054 251.346 169.924 241.342 159.233 230.918C128.035 200.501 146.139 209.743 145.074 224.558C144.316 235.105 145.102 246.816 139.248 255.779C118.888 286.946 89.01 294.032 57.4938 310.125C49.668 314.121 40.4068 316.744 34.6704 323.221C32.679 325.469 36.1343 329.878 38.9573 331.055C44.8013 333.49 51.6035 332.976 57.9769 332.934C75.2438 332.818 96.0637 328.803 112.198 324.03C121.729 321.21 131.818 318.986 140.093 313.652C156.695 302.951 152.232 293.606 139.791 281.969C132.826 275.455 123.774 271.365 115.7 266.157C110.269 262.654 103.672 260.484 99.2764 255.837C98.1342 254.629 102.104 253.561 103.805 253.582C110.325 253.661 116.749 255.13 123.187 256.126C136.563 258.195 149.889 260.555 163.218 262.89" stroke="#252525" stroke-opacity="0.7" stroke-width="1.375" stroke-linecap="round"/>
<path opacity="0.5" d="M238.989 288.77C225.345 280.392 215.718 274.521 200.726 264.925C188.14 256.868 175.468 248.922 163.154 240.487C127.219 215.871 146.609 221.857 148.141 236.662C149.232 247.202 152.042 258.623 147.851 268.483C133.278 302.767 105.167 314.935 77.0137 336.275C70.023 341.574 61.3834 345.765 56.8764 353.151C55.3118 355.715 59.4727 359.467 62.4501 360.14C68.6136 361.531 75.2049 359.846 81.4571 358.7C98.3958 355.596 118.146 348.028 133.161 340.523C142.031 336.09 151.553 332.148 158.752 325.451C173.196 312.014 167.187 303.565 152.943 294.235C144.969 289.013 135.367 286.544 126.53 282.802C120.586 280.286 113.73 279.287 108.604 275.462C107.272 274.468 110.984 272.727 112.659 272.452C119.077 271.401 125.641 271.738 132.137 271.606C145.635 271.332 159.134 271.354 172.632 271.349" stroke="#252525" stroke-opacity="0.7" stroke-width="1.33333" stroke-linecap="round"/>
<path opacity="0.5125" d="M251.895 283.6C237.026 277.686 226.542 273.554 210.136 266.67C196.362 260.891 182.525 255.237 168.952 249.037C129.346 230.946 149.441 233.509 153.535 247.852C156.448 258.063 161.206 268.846 158.812 279.296C150.488 315.633 124.997 332.484 101.069 358.391C95.1271 364.825 87.372 370.449 84.2352 378.513C83.1463 381.312 87.89 384.297 90.9326 384.447C97.231 384.758 103.412 381.959 109.354 379.75C125.453 373.768 143.533 362.897 156.972 352.904C164.912 347.001 173.577 341.47 179.479 333.621C191.321 317.875 183.94 310.575 168.315 303.826C159.569 300.048 149.704 299.268 140.368 297.1C134.089 295.641 127.178 295.838 121.474 292.948C119.991 292.197 123.335 289.839 124.932 289.279C131.053 287.136 137.561 286.337 143.92 285.087C157.133 282.49 170.399 280.183 183.658 277.852" stroke="#252525" stroke-opacity="0.7" stroke-width="1.29167" stroke-linecap="round"/>
<path opacity="0.525" d="M264.018 276.094C248.364 272.817 237.334 270.543 220 266.573C205.447 263.24 190.853 260.041 176.424 256.259C134.319 245.223 154.522 244.299 161.061 257.739C165.717 267.306 172.285 277.122 171.765 287.837C169.958 325.097 147.858 346.091 128.883 375.748C124.171 383.111 117.535 389.99 115.866 398.48C115.287 401.427 120.473 403.556 123.49 403.181C129.736 402.405 135.32 398.584 140.774 395.386C155.549 386.721 171.413 372.897 182.871 360.735C189.639 353.55 197.187 346.608 201.612 337.856C210.489 320.295 201.953 314.365 185.41 310.393C176.15 308.17 166.316 309.095 156.759 308.561C150.331 308.201 143.573 309.582 137.458 307.712C135.87 307.226 138.742 304.327 140.214 303.501C145.855 300.336 152.112 298.43 158.143 296.105C170.675 291.275 183.31 286.722 195.935 282.147" stroke="#252525" stroke-opacity="0.7" stroke-width="1.25" stroke-linecap="round"/>
<path opacity="0.5375" d="M274.957 266.425C258.983 265.877 247.732 265.526 229.984 264.584C215.082 263.794 200.163 263.142 185.305 261.888C141.946 258.227 161.656 253.855 170.453 265.978C176.715 274.607 184.902 283.154 186.275 293.801C191.05 330.824 173.003 355.296 159.552 387.768C156.212 395.832 150.894 403.746 150.745 412.397C150.694 415.4 156.17 416.609 159.072 415.723C165.079 413.889 169.901 409.166 174.703 405.081C187.713 394.013 200.887 377.673 210.019 363.726C215.414 355.488 221.617 347.354 224.431 337.972C230.075 319.148 220.635 314.767 203.664 313.688C194.164 313.084 184.653 315.68 175.158 316.791C168.772 317.538 162.367 320.057 156.023 319.262C154.375 319.055 156.691 315.706 157.993 314.64C162.986 310.555 168.806 307.605 174.33 304.281C185.808 297.375 197.436 290.724 209.05 284.053" stroke="#252525" stroke-opacity="0.7" stroke-width="1.20833" stroke-linecap="round"/>
<path opacity="0.55" d="M284.347 254.818C268.525 257.013 257.387 258.593 239.747 260.705C224.937 262.477 210.136 264.389 195.287 265.698C151.956 269.517 170.591 261.838 181.385 272.267C189.069 279.691 198.633 286.704 201.859 296.95C213.076 332.582 199.615 359.764 192.088 394.036C190.219 402.546 186.377 411.248 187.753 419.79C188.231 422.756 193.835 423.008 196.536 421.639C202.127 418.805 206.043 413.33 210.051 408.486C220.912 395.362 231.006 377.02 237.542 361.727C241.403 352.693 246.079 343.623 247.197 333.905C249.44 314.407 239.376 311.709 222.478 313.552C213.019 314.584 204.113 318.768 194.96 321.487C188.805 323.316 182.942 326.892 176.557 327.195C174.898 327.274 176.588 323.58 177.683 322.308C181.879 317.432 187.09 313.531 191.943 309.313C202.028 300.549 212.305 292.011 222.564 283.455" stroke="#252525" stroke-opacity="0.7" stroke-width="1.16667" stroke-linecap="round"/>
<path opacity="0.5625" d="M291.88 241.571C276.676 246.442 265.98 249.905 248.97 255.003C234.69 259.284 220.442 263.701 206.041 267.532C164.018 278.713 181.029 267.967 193.498 276.376C202.375 282.362 213.032 287.622 218.013 297.148C235.331 330.276 226.848 359.321 225.459 394.322C225.114 403.013 222.858 412.231 225.716 420.399C226.709 423.234 232.275 422.522 234.695 420.713C239.706 416.967 242.602 410.911 245.699 405.459C254.092 390.689 260.813 370.917 264.563 354.754C266.778 345.205 269.791 335.483 269.183 325.732C267.965 306.168 257.574 305.239 241.249 309.947C232.11 312.582 224.07 318.224 215.53 322.466C209.787 325.32 204.639 329.842 198.401 331.234C196.78 331.596 197.796 327.673 198.651 326.234C201.928 320.718 206.376 315.989 210.416 311.008C218.812 300.659 227.437 290.5 236.041 280.326" stroke="#252525" stroke-opacity="0.7" stroke-width="1.125" stroke-linecap="round"/>
<path opacity="0.575" d="M297.291 227.031C283.154 234.43 273.214 239.671 257.337 247.604C244.007 254.264 230.732 261.053 217.205 267.292C177.73 285.498 192.619 272.015 206.389 278.139C216.192 282.498 227.623 285.838 234.205 294.346C257.094 323.935 253.825 353.94 258.596 388.583C259.78 397.185 259.173 406.633 263.424 414.17C264.9 416.787 270.264 415.131 272.333 412.937C276.617 408.394 278.409 401.944 280.507 396.054C286.192 380.094 289.35 359.506 290.212 342.974C290.721 333.208 291.986 323.134 289.676 313.654C285.043 294.633 274.634 295.504 259.363 302.935C250.813 307.095 243.876 314.022 236.2 319.659C231.037 323.45 226.754 328.779 220.847 331.218C219.313 331.852 219.626 327.822 220.217 326.261C222.48 320.276 226.037 314.864 229.147 309.274C235.609 297.66 242.331 286.193 249.03 274.714" stroke="#252525" stroke-opacity="0.7" stroke-width="1.08333" stroke-linecap="round"/>
<path opacity="0.5875" d="M300.379 211.588C287.724 221.293 278.834 228.155 264.557 238.686C252.57 247.527 240.661 256.484 228.405 264.945C192.643 289.636 204.975 273.823 219.631 277.465C230.064 280.058 241.926 281.368 249.907 288.593C277.659 313.714 279.68 343.755 290.442 376.965C293.114 385.211 294.167 394.598 299.678 401.269C301.592 403.585 306.594 401.034 308.252 398.522C311.684 393.321 312.325 386.676 313.365 380.527C316.183 363.869 315.7 343.098 313.661 326.709C312.456 317.027 311.943 306.913 308.008 297.998C300.111 280.11 289.995 282.761 276.227 292.694C268.52 298.254 262.887 306.254 256.299 313.115C251.868 317.73 248.574 323.703 243.173 327.118C241.77 328.005 241.375 323.992 241.685 322.356C242.871 316.087 245.434 310.157 247.525 304.13C251.871 291.606 256.498 279.182 261.101 266.751" stroke="#252525" stroke-opacity="0.7" stroke-width="1.04167" stroke-linecap="round"/>
<path opacity="0.6" d="M301.024 195.649C290.224 207.372 282.645 215.651 270.388 228.465C260.097 239.223 249.903 250.083 239.281 260.515C208.285 290.956 217.703 273.291 232.8 274.33C243.547 275.07 255.481 274.302 264.614 280.015C296.374 299.881 303.595 329.034 319.994 359.786C324.066 367.422 326.738 376.458 333.338 382.056C335.629 383.999 340.122 380.627 341.321 377.873C343.803 372.171 343.279 365.533 343.236 359.315C343.118 342.467 339.027 322.152 334.163 306.409C331.29 297.109 329.023 287.265 323.588 279.191C312.683 262.991 303.161 267.346 291.303 279.485C284.664 286.281 280.497 295.113 275.189 302.992C271.62 308.291 269.409 314.728 264.673 319.017C263.443 320.131 262.354 316.258 262.375 314.598C262.456 308.236 263.953 301.968 264.968 295.687C267.077 282.635 269.482 269.632 271.861 256.626" stroke="#252525" stroke-opacity="0.7" stroke-linecap="round"/>
</svg>
