<svg width="392" height="430" viewBox="0 0 392 430" fill="none" xmlns="http://www.w3.org/2000/svg">
<path opacity="0.3" d="M319.748 300.91C325.007 288.066 330.289 283.507 321.644 269.908C315.22 259.8 297.476 247.74 286.114 241.436C280.236 238.175 270.859 231.905 265.754 235.9C263.89 237.359 264.287 239.919 264.107 241.99C263.378 250.373 265.061 257.726 268.049 265.874C272.563 278.179 277.15 285.368 284.817 296.599C287.999 301.262 296.534 311.558 299.039 317.399C305.486 332.435 292.398 348.561 277.132 356.587C263.257 363.881 242.411 371.853 225.134 369.083C221.975 368.576 214.937 365.912 212.658 363.705C206.952 358.179 217.617 354.091 222.239 352.83C249.049 345.519 280.633 347.93 307.772 352.553C327.367 355.892 346.416 361.705 365.558 366.394" stroke="#252525" stroke-opacity="0.7" stroke-width="2" stroke-linecap="round"/>
<path opacity="0.3125" d="M297.146 324.116C305.572 313.008 311.843 309.933 307.114 294.556C303.599 283.129 289.727 266.93 280.471 257.933C275.683 253.278 268.324 244.817 262.371 247.391C260.198 248.331 259.907 250.912 259.189 252.873C256.286 260.811 255.97 268.365 256.699 277.02C257.8 290.091 260.316 298.225 264.728 311.057C266.56 316.384 272.051 328.532 272.922 334.829C275.163 351.038 258.355 363.337 241.583 367.233C226.341 370.773 204.224 373.197 188.358 366.12C185.458 364.826 179.399 360.455 177.789 357.736C173.762 350.93 185.079 349.681 189.849 349.635C217.52 349.367 247.221 359.734 272.071 371.115C290.014 379.333 306.782 389.81 323.935 399.22" stroke="#252525" stroke-opacity="0.7" stroke-width="1.95833" stroke-linecap="round"/>
<path opacity="0.325" d="M268.593 340.731C279.636 332.105 286.481 330.712 286.006 314.636C285.652 302.689 276.603 283.511 270.085 272.467C266.713 266.754 261.878 256.709 255.472 257.698C253.133 258.059 252.17 260.484 250.961 262.201C246.067 269.151 243.763 276.383 242.172 284.944C239.77 297.873 240.035 306.38 240.88 319.913C241.23 325.531 243.293 338.674 242.463 344.988C240.326 361.242 220.907 368.905 203.748 368.444C188.154 368.025 166.246 364.791 152.864 353.938C150.417 351.954 145.748 346.195 144.921 343.158C142.85 335.555 154.064 337.2 158.663 338.359C185.34 345.081 211.155 362.609 232.036 379.893C247.114 392.374 260.463 406.744 274.464 420.18" stroke="#252525" stroke-opacity="0.7" stroke-width="1.91667" stroke-linecap="round"/>
<path opacity="0.3375" d="M236.056 349.46C248.991 343.903 255.957 344.276 259.775 328.63C262.612 317.002 258.993 296.206 255.651 283.903C253.922 277.538 251.934 266.621 245.499 265.968C243.15 265.73 241.576 267.83 239.954 269.185C233.39 274.668 229.247 281.074 225.437 288.943C219.683 300.828 217.677 309.11 214.891 322.394C213.734 327.908 212.226 341.12 209.747 347.01C203.364 362.172 182.615 364.697 166.205 359.942C151.291 355.621 131.041 346.996 121.034 333.153C119.204 330.622 116.238 323.887 116.248 320.746C116.275 312.882 126.642 317.288 130.765 319.562C154.682 332.754 174.894 356.166 190.416 378.105C201.624 393.945 210.664 411.178 220.581 427.671" stroke="#252525" stroke-opacity="0.7" stroke-width="1.875" stroke-linecap="round"/>
<path opacity="0.35" d="M201.781 349.574C215.752 347.468 222.381 349.577 230.23 335.46C236.063 324.969 238.099 304.024 238.143 291.33C238.166 284.763 239.151 273.745 233.109 271.5C230.903 270.68 228.825 272.309 226.898 273.207C219.1 276.842 213.394 281.973 207.621 288.599C198.903 298.605 194.762 306.081 188.538 318.18C185.954 323.203 180.984 335.554 177.022 340.607C166.825 353.613 146.113 350.835 131.528 342.132C118.273 334.224 101.01 320.828 95.0265 304.977C93.9327 302.08 92.8586 294.846 93.7046 291.821C95.8223 284.252 104.663 291.1 108.04 294.327C127.631 313.043 140.925 340.677 150.081 365.712C156.693 383.79 160.84 402.663 166.032 421.045" stroke="#252525" stroke-opacity="0.7" stroke-width="1.83333" stroke-linecap="round"/>
<path opacity="0.3625" d="M168.121 340.951C182.201 342.45 188.057 346.149 199.392 334.557C207.816 325.941 215.333 306.316 218.738 294.122C220.499 287.814 224.369 277.47 219.116 273.787C217.199 272.442 214.756 273.484 212.653 273.861C204.143 275.389 197.262 278.884 189.921 283.798C178.833 291.219 172.845 297.363 163.618 307.426C159.787 311.603 151.705 322.225 146.534 326.083C133.22 336.016 113.911 328.12 102.099 316.074C91.3652 305.127 78.2043 287.893 76.6113 271.143C76.3201 268.081 77.1962 260.855 78.8159 258.16C82.87 251.416 89.6126 260.231 92.0269 264.185C106.031 287.123 111.579 317.045 113.811 343.426C115.423 362.475 114.439 381.667 114.595 400.651" stroke="#252525" stroke-opacity="0.7" stroke-width="1.79167" stroke-linecap="round"/>
<path opacity="0.375" d="M137.361 324.08C150.61 329.099 155.313 334.141 169.342 325.89C179.769 319.758 192.21 302.824 198.713 291.98C202.077 286.37 208.546 277.42 204.424 272.548C202.919 270.769 200.278 271.149 198.142 270.977C189.494 270.28 181.908 271.887 173.503 274.739C160.81 279.047 153.393 283.425 141.807 290.742C136.998 293.779 126.376 301.925 120.35 304.315C104.84 310.469 88.2042 297.977 79.9249 283.407C72.4005 270.165 64.1767 250.27 67.0345 233.78C67.5569 230.766 70.3048 224.049 72.5823 221.874C78.2828 216.428 82.5 226.607 83.8002 231.018C91.3419 256.605 88.8554 286.749 84.0858 312.65C80.6418 331.352 74.645 349.532 69.8084 367.801" stroke="#252525" stroke-opacity="0.7" stroke-width="1.75" stroke-linecap="round"/>
<path opacity="0.3875" d="M111.585 300.024C123.116 308.242 126.36 314.29 142.103 309.966C153.803 306.752 170.268 293.683 179.393 284.938C184.113 280.414 192.712 273.48 189.987 267.744C188.992 265.65 186.334 265.337 184.309 264.623C176.111 261.736 168.342 261.333 159.455 261.916C146.034 262.796 137.707 265.097 124.576 269.151C119.124 270.834 106.711 275.931 100.25 276.681C83.6182 278.611 70.7516 262.348 66.5236 246.233C62.681 231.588 59.8934 210.373 66.9565 195.273C68.2477 192.512 72.6595 186.767 75.4328 185.262C82.3744 181.496 83.8102 192.351 83.9213 196.921C84.5659 223.425 74.3066 251.733 62.9402 275.381C54.7329 292.456 44.1878 308.375 34.7437 324.678" stroke="#252525" stroke-opacity="0.7" stroke-width="1.70833" stroke-linecap="round"/>
<path opacity="0.4" d="M92.5012 270.352C101.538 281.234 103.115 287.886 119.467 287.799C131.62 287.735 150.931 279.427 162.022 273.379C167.759 270.25 177.872 265.806 176.716 259.587C176.295 257.317 173.804 256.329 172.028 255.119C164.84 250.224 157.425 247.828 148.674 246.091C135.458 243.467 126.805 243.527 113.049 244.029C107.339 244.238 94.0079 245.929 87.5614 244.979C70.9669 242.535 62.7162 223.574 62.7877 206.988C62.8526 191.915 65.6355 170.799 76.3724 158.107C78.3352 155.787 84.089 151.405 87.1618 150.675C94.8529 148.848 93.4379 159.656 92.3649 164.078C86.1413 189.725 68.8991 214.288 51.7894 234.084C39.4352 248.378 25.1171 260.956 11.7655 274.188" stroke="#252525" stroke-opacity="0.7" stroke-width="1.66667" stroke-linecap="round"/>
<path opacity="0.4125" d="M81.3517 237.007C87.2801 249.837 87.0926 256.656 102.907 260.819C114.66 263.913 135.446 260.923 147.712 257.977C154.057 256.453 164.966 254.798 165.45 248.507C165.626 246.21 163.475 244.611 162.071 242.984C156.388 236.402 149.844 232.168 141.839 228.222C129.75 222.262 121.378 220.072 107.964 216.984C102.396 215.702 89.087 213.869 83.1056 211.28C67.7082 204.616 64.6159 184.207 68.9498 168.246C72.8887 153.741 81.0061 134.121 94.6388 124.683C97.131 122.957 103.815 120.229 106.97 120.324C114.867 120.562 110.721 130.607 108.548 134.588C95.9425 157.68 72.9748 176.866 51.3608 191.494C35.7542 202.056 18.6922 210.456 2.39571 219.735" stroke="#252525" stroke-opacity="0.7" stroke-width="1.625" stroke-linecap="round"/>
<path opacity="0.425" d="M78.8018 202.181C81.2139 216.112 79.2799 222.648 93.4448 230.775C103.972 236.816 124.765 239.327 137.339 239.667C143.843 239.843 154.779 241.078 156.862 235.128C157.622 232.955 155.961 230.852 155.026 228.917C151.244 221.085 146.029 215.296 139.332 209.406C129.218 200.511 121.716 196.223 109.588 189.757C104.553 187.073 92.2029 181.846 87.1063 177.793C73.9865 167.358 76.2553 146.845 84.5343 132.558C92.0585 119.573 104.923 102.733 120.484 97.1586C123.328 96.1395 130.468 95.241 133.483 96.1521C141.03 98.4326 134.454 107.056 131.336 110.337C113.255 129.364 86.1954 141.927 61.612 150.441C43.8613 156.588 25.2646 160.268 7.17908 164.997" stroke="#252525" stroke-opacity="0.7" stroke-width="1.58333" stroke-linecap="round"/>
<path opacity="0.4375" d="M84.9205 168.16C83.6411 182.265 80.0937 188.09 91.6109 199.618C100.17 208.185 119.51 215.991 131.509 219.571C137.717 221.423 147.91 225.445 151.449 220.226C152.741 218.32 151.687 215.855 151.289 213.741C149.676 205.183 146.158 198.233 141.241 190.802C133.817 179.579 127.713 173.489 117.724 164.096C113.578 160.196 103.056 151.946 99.2034 146.705C89.2868 133.215 96.7663 113.95 108.415 102.264C119.002 91.6434 135.719 78.6732 152.117 77.3012C155.115 77.0503 162.21 78.0268 164.873 79.6881C171.539 83.8462 162.99 90.4913 159.146 92.86C136.849 106.599 107.592 111.761 81.761 113.644C63.1095 115.004 44.2819 113.757 25.6748 113.658" stroke="#252525" stroke-opacity="0.7" stroke-width="1.54167" stroke-linecap="round"/>
<path opacity="0.45" d="M99.1692 137.157C94.2685 150.495 89.346 155.23 97.4021 169.353C103.389 179.85 119.924 192.374 130.512 198.921C135.99 202.308 144.729 208.82 149.486 204.67C151.223 203.155 150.852 200.497 151.02 198.346C151.7 189.641 150.132 182.004 147.347 173.542C143.141 160.764 138.866 153.297 131.722 141.634C128.756 136.792 120.802 126.099 118.468 120.033C112.46 104.418 124.656 87.6708 138.883 79.3361C151.813 71.7611 171.239 63.4821 187.34 66.3591C190.283 66.885 196.841 69.6514 198.965 71.9441C204.282 77.6829 194.344 81.9284 190.037 83.2374C165.053 90.8297 135.62 88.3264 110.33 83.5248C92.0691 80.0578 74.3176 74.0207 56.4792 69.1516" stroke="#252525" stroke-opacity="0.7" stroke-width="1.5" stroke-linecap="round"/>
<path opacity="0.4625" d="M120.434 111.162C112.225 122.84 106.255 126.176 110.278 141.908C113.268 153.6 125.851 169.938 134.296 178.972C138.665 183.646 145.343 192.176 151.001 189.365C153.066 188.339 153.409 185.669 154.136 183.627C157.076 175.365 157.577 167.567 157.126 158.661C156.446 145.21 154.304 136.89 150.51 123.773C148.935 118.328 144.109 105.945 143.462 99.4751C141.796 82.8188 157.906 69.6921 173.755 65.2324C188.158 61.1793 208.983 58.0952 223.685 64.975C226.372 66.2327 231.941 70.5799 233.378 73.3413C236.975 80.253 226.318 81.8405 221.839 82.014C195.859 83.0203 168.259 73.1139 145.242 62.0337C128.621 54.0331 113.166 43.6719 97.3193 34.4203" stroke="#252525" stroke-opacity="0.7" stroke-width="1.45833" stroke-linecap="round"/>
<path opacity="0.475" d="M147.117 91.8016C136.133 101.033 129.511 102.756 129.212 118.994C128.989 131.062 136.757 150.045 142.481 160.917C145.443 166.541 149.603 176.48 155.785 175.186C158.043 174.713 159.079 172.216 160.318 170.424C165.333 163.17 167.879 155.75 169.805 147.017C172.714 133.83 172.858 125.238 172.685 111.588C172.613 105.922 171.254 92.7221 172.346 86.2975C175.157 69.7592 194.118 61.118 210.532 60.7979C225.45 60.507 246.285 62.7731 258.593 73.1371C260.843 75.0317 265.045 80.6427 265.695 83.6772C267.322 91.2725 256.658 90.122 252.307 89.1607C227.068 83.5844 203.163 67.0396 183.973 50.5139C170.117 38.5814 158.005 24.658 145.223 11.71" stroke="#252525" stroke-opacity="0.7" stroke-width="1.41667" stroke-linecap="round"/>
<path opacity="0.4875" d="M177.254 80.2239C164.218 86.3814 157.381 86.3838 152.772 101.989C149.347 113.586 151.779 133.866 154.4 145.8C155.756 151.974 157.119 162.615 163.419 162.917C165.719 163.027 167.382 160.876 169.052 159.456C175.812 153.71 180.239 147.184 184.417 139.235C190.728 127.23 193.153 118.97 196.618 105.746C198.056 100.256 200.259 87.1693 203.02 81.2395C210.127 65.9749 230.691 62.3886 246.587 66.1982C261.034 69.6605 280.499 77.0764 289.598 90.1727C291.261 92.5668 293.816 99.0393 293.634 102.133C293.18 109.875 283.215 106.088 279.279 104.068C256.452 92.3506 237.828 70.3762 223.74 49.6034C213.568 34.6042 205.606 18.1202 196.739 2.4102" stroke="#252525" stroke-opacity="0.7" stroke-width="1.375" stroke-linecap="round"/>
<path opacity="0.5" d="M208.652 77.0358C194.426 79.696 187.824 77.9829 179.221 91.8575C172.828 102.169 169.781 122.312 169.137 134.465C168.804 140.752 167.288 151.344 173.291 153.215C175.482 153.898 177.66 152.243 179.651 151.295C187.707 147.456 193.719 142.281 199.868 135.673C209.156 125.693 213.696 118.345 220.56 106.477C223.409 101.55 229.018 89.4977 233.262 84.4788C244.186 71.559 264.997 73.264 279.332 80.9218C292.361 87.8816 309.184 99.9085 314.485 114.806C315.454 117.529 316.199 124.404 315.201 127.338C312.702 134.682 304.087 128.534 300.824 125.601C281.9 108.587 269.763 82.7485 261.687 59.2053C255.855 42.2057 252.553 24.3305 248.171 6.97388" stroke="#252525" stroke-opacity="0.7" stroke-width="1.33333" stroke-linecap="round"/>
<path opacity="0.5125" d="M239.03 82.2404C224.56 81.2111 218.625 77.9005 206.625 89.0669C197.708 97.3656 189.424 115.957 185.582 127.475C183.594 133.434 179.322 143.231 184.635 146.543C186.575 147.752 189.121 146.71 191.298 146.3C200.111 144.642 207.299 141.183 215 136.382C226.63 129.132 232.97 123.214 242.755 113.538C246.817 109.521 255.437 99.3511 260.873 95.5972C274.866 85.9337 294.552 92.8181 306.396 103.792C317.161 113.765 330.254 129.564 331.438 145.218C331.655 148.08 330.554 154.876 328.811 157.444C324.449 163.872 317.74 155.792 315.36 152.15C301.553 131.028 296.653 103.135 295.073 78.472C293.932 60.6637 295.471 42.6514 295.828 24.8656" stroke="#252525" stroke-opacity="0.7" stroke-width="1.29167" stroke-linecap="round"/>
<path opacity="0.525" d="M266.207 95.2555C252.458 90.5903 247.577 85.9044 233.018 93.5733C222.197 99.2728 209.286 115.013 202.537 125.092C199.046 130.306 192.333 138.625 196.611 143.154C198.172 144.807 200.913 144.455 203.13 144.615C212.104 145.262 219.977 143.769 228.7 141.117C241.873 137.113 249.57 133.044 261.593 126.243C266.584 123.42 277.608 115.849 283.861 113.627C299.957 107.907 317.221 119.518 325.813 133.061C333.622 145.369 342.157 163.861 339.191 179.188C338.649 181.99 335.797 188.233 333.434 190.255C327.518 195.316 323.141 185.856 321.792 181.756C313.965 157.973 316.546 129.954 321.495 105.88C325.069 88.4966 331.293 71.5983 336.312 54.6173" stroke="#252525" stroke-opacity="0.7" stroke-width="1.25" stroke-linecap="round"/>
<path opacity="0.5375" d="M288.224 114.954C276.117 106.949 272.608 101.2 256.506 104.826C244.539 107.521 227.933 119.317 218.771 127.26C214.031 131.369 205.362 137.632 208.327 143.076C209.41 145.063 212.157 145.428 214.263 146.15C222.79 149.073 230.806 149.66 239.947 149.352C253.752 148.888 262.268 146.957 275.688 143.513C281.258 142.083 293.909 137.644 300.546 137.115C317.63 135.754 331.334 151.326 336.133 166.529C340.495 180.345 343.95 200.284 337.088 214.234C335.833 216.784 331.445 222.045 328.629 223.38C321.58 226.72 319.802 216.517 319.562 212.236C318.17 187.401 327.963 161.17 339.025 139.333C347.012 123.565 357.441 108.942 366.724 93.9304" stroke="#252525" stroke-opacity="0.7" stroke-width="1.20833" stroke-linecap="round"/>
<path opacity="0.55" d="M303.51 139.745C293.861 128.922 291.951 122.49 275.433 121.811C263.158 121.306 244.044 128.348 233.128 133.613C227.481 136.336 217.475 140.113 218.94 146.111C219.474 148.301 222.038 149.362 223.89 150.6C231.386 155.614 238.991 158.25 247.916 160.319C261.394 163.442 270.133 163.788 284.007 163.949C289.766 164.015 303.154 163.02 309.712 164.228C326.594 167.338 335.835 185.846 336.554 201.697C337.208 216.102 335.404 236.157 325.162 247.788C323.29 249.914 317.686 253.835 314.616 254.39C306.933 255.777 307.847 245.513 308.72 241.336C313.784 217.11 330.032 194.434 346.373 176.309C358.173 163.221 372.038 151.865 384.896 139.84" stroke="#252525" stroke-opacity="0.7" stroke-width="1.16667" stroke-linecap="round"/>
<path opacity="0.5625" d="M310.961 167.691C304.426 154.761 304.233 148.069 288.46 143.125C276.738 139.45 256.474 141.266 244.582 143.5C238.43 144.656 227.8 145.694 227.672 151.851C227.626 154.099 229.829 155.786 231.299 157.461C237.248 164.236 243.913 168.751 251.999 173.061C264.21 179.571 272.558 182.175 285.913 185.933C291.456 187.494 304.638 190.013 310.659 192.88C326.161 200.261 330.328 220.487 326.95 235.939C323.881 249.982 316.987 268.827 304.11 277.368C301.756 278.93 295.338 281.25 292.232 280.987C284.457 280.327 287.976 270.679 289.892 266.883C301.005 244.867 322.518 227.25 342.952 214.039C357.707 204.5 374.012 197.166 389.516 188.925" stroke="#252525" stroke-opacity="0.7" stroke-width="1.125" stroke-linecap="round"/>
<path opacity="0.575" d="M310.042 196.636C307.069 182.455 308.602 175.944 294.682 167.072C284.337 160.479 264.356 156.968 252.329 156.036C246.108 155.553 235.604 153.794 233.9 159.705C233.277 161.864 234.965 164.065 235.951 166.063C239.939 174.151 245.199 180.241 251.878 186.504C261.966 195.961 269.337 200.644 281.232 207.742C286.17 210.689 298.217 216.546 303.28 220.878C316.312 232.031 315.13 252.642 307.908 266.683C301.344 279.444 289.864 295.848 275.269 300.749C272.601 301.645 265.824 302.218 262.901 301.157C255.583 298.5 261.45 290.099 264.27 286.932C280.628 268.563 305.871 257.143 328.944 249.697C345.604 244.32 363.19 241.475 380.238 237.546" stroke="#252525" stroke-opacity="0.7" stroke-width="1.08333" stroke-linecap="round"/>
<path opacity="0.5875" d="M300.806 224.382C301.61 209.891 304.764 203.988 293.678 191.805C285.439 182.75 267.145 174.186 255.83 170.173C249.976 168.098 240.337 163.679 237.174 168.958C236.019 170.886 237.073 173.452 237.504 175.641C239.249 184.498 242.731 191.751 247.533 199.537C254.785 211.297 260.659 217.734 270.257 227.678C274.241 231.806 284.305 240.589 288.052 246.09C297.696 260.252 291.24 279.888 280.677 291.607C271.076 302.258 255.811 315.161 240.522 316.129C237.727 316.306 231.067 315.108 228.532 313.325C222.186 308.862 229.992 302.25 233.52 299.915C253.978 286.372 281.182 281.849 305.274 280.611C322.67 279.717 340.303 281.511 357.698 282.118" stroke="#252525" stroke-opacity="0.7" stroke-width="1.04167" stroke-linecap="round"/>
<path opacity="0.6" d="M283.882 248.813C288.425 234.98 292.987 230.07 285.52 215.423C279.97 204.537 264.644 191.548 254.83 184.759C249.753 181.247 241.653 174.493 237.243 178.796C235.633 180.367 235.976 183.124 235.821 185.355C235.191 194.383 236.644 202.303 239.226 211.079C243.125 224.331 247.087 232.074 253.709 244.17C256.458 249.192 263.83 260.282 265.994 266.572C271.563 282.766 260.258 300.134 247.071 308.778C235.086 316.634 217.08 325.22 202.156 322.236C199.428 321.691 193.349 318.822 191.38 316.444C186.452 310.493 195.664 306.09 199.656 304.732C222.813 296.858 250.096 299.454 273.537 304.434C290.463 308.03 306.917 314.291 323.452 319.34" stroke="#252525" stroke-opacity="0.7" stroke-linecap="round"/>
</svg>
