<svg width="516" height="516" viewBox="0 0 516 516" fill="none" xmlns="http://www.w3.org/2000/svg">
<path d="M3.00016 258.266L130.032 131.233M3.00016 258.266L130.633 385.898M3.00016 258.266L54.776 258.388M512.33 259.467L513.531 258.266L385.898 130.633M512.33 259.467L385.298 386.499M512.33 259.467L458.146 259.339M385.298 386.499L258.266 513.531L130.633 385.898M385.298 386.499L130.032 131.233M130.032 131.233L258.266 3.00002L385.898 130.633M385.898 130.633L130.633 385.898M458.146 259.339L256.937 460.548L155.856 359.468M458.146 259.339L54.776 258.388M458.146 259.339L255.985 57.1784L155.381 157.783M54.776 258.388L155.856 359.468M54.776 258.388L155.381 157.783M155.856 359.468L155.381 157.783" stroke="#252525" stroke-width="3"/>
</svg>
