<svg width="385" height="95" viewBox="0 0 385 95" fill="none" xmlns="http://www.w3.org/2000/svg">
<path d="M186.799 47.5C186.799 72.9067 166.227 93.5 140.854 93.5C115.48 93.5 94.9082 72.9067 94.9082 47.5C94.9082 22.0933 115.48 1.5 140.854 1.5C166.227 1.5 186.799 22.0933 186.799 47.5Z" stroke="white" stroke-width="3"/>
<path d="M383.5 47.5C383.5 72.9067 362.928 93.5 337.555 93.5C312.181 93.5 291.609 72.9067 291.609 47.5C291.609 22.0933 312.181 1.5 337.555 1.5C362.928 1.5 383.5 22.0933 383.5 47.5Z" stroke="white" stroke-width="3"/>
<path d="M12.867 1.52406C37.5462 2.31662 57.3125 22.5959 57.3125 47.5C57.3125 72.4041 37.5462 92.6834 12.867 93.4759L12.867 1.52406Z" stroke="white" stroke-width="3"/>
<path d="M209.566 1.52459C233.959 2.32544 253.518 22.5871 253.518 47.5C253.518 72.4129 233.959 92.6746 209.566 93.4754L209.566 1.52459Z" stroke="white" stroke-width="3"/>
<path d="M86.4728 93.4759C61.7936 92.6834 42.0273 72.4041 42.0273 47.5C42.0273 22.5959 61.7936 2.31661 86.4728 1.52405L86.4728 93.4759Z" stroke="white" stroke-width="3"/>
<path d="M282.678 93.4759C257.999 92.6834 238.232 72.4041 238.232 47.5C238.232 22.5959 257.999 2.31661 282.678 1.52405V93.4759Z" stroke="white" stroke-width="3"/>
<path d="M1.49906 8.45646C22.3561 9.24566 39.0254 26.423 39.0254 47.5011C39.0254 68.5791 22.3561 85.7564 1.49905 86.5456L1.49906 8.45646Z" stroke="white" stroke-width="3"/>
<path d="M198.2 8.45722C218.768 9.25607 235.232 26.4129 235.232 47.5011C235.232 68.5892 218.768 85.746 198.2 86.5449L198.2 8.45722Z" stroke="white" stroke-width="3"/>
<path d="M175.43 47.4987C175.43 66.6203 159.947 82.1185 140.852 82.1185C121.756 82.1185 106.273 66.6203 106.273 47.4987C106.273 28.3771 121.756 12.8789 140.852 12.8789C159.947 12.8789 175.43 28.3771 175.43 47.4987Z" stroke="white" stroke-width="3"/>
<path d="M372.133 47.4987C372.133 66.6203 356.65 82.1185 337.555 82.1185C318.459 82.1185 302.977 66.6203 302.977 47.4987C302.977 28.3771 318.459 12.8789 337.555 12.8789C356.65 12.8789 372.133 28.3771 372.133 47.4987Z" stroke="white" stroke-width="3"/>
<path d="M162.582 47.5026C162.582 35.4859 152.852 25.7474 140.854 25.7474C128.855 25.7474 119.125 35.4859 119.125 47.5026C119.125 59.5193 128.855 69.2578 140.854 69.2578C152.852 69.2578 162.582 59.5193 162.582 47.5026Z" stroke="white" stroke-width="3"/>
<path d="M359.283 47.5026C359.283 35.4859 349.553 25.7474 337.555 25.7474C325.556 25.7474 315.826 35.4859 315.826 47.5026C315.826 59.5193 325.556 69.2578 337.555 69.2578C349.553 69.2578 359.283 59.5193 359.283 47.5026Z" stroke="white" stroke-width="3"/>
</svg>
