<svg width="720" height="182" viewBox="0 0 720 182" fill="none" xmlns="http://www.w3.org/2000/svg">
<circle cx="252" cy="91.0528" r="89.4474" stroke="white" stroke-width="3"/>
<circle cx="629.053" cy="91.0528" r="89.4474" stroke="white" stroke-width="3"/>
<path d="M5.28896 1.61759C53.9975 2.41847 93.2363 42.1532 93.2363 91.0526C93.2363 139.952 53.9975 179.687 5.28895 180.488L5.28896 1.61759Z" stroke="white" stroke-width="3"/>
<path d="M382.342 1.61785C430.513 2.42714 469.342 42.144 469.342 91.0526C469.342 139.961 430.513 179.678 382.342 180.487L382.342 1.61785Z" stroke="white" stroke-width="3"/>
<path d="M149.131 180.488C100.422 179.687 61.1836 139.952 61.1836 91.0528C61.1836 42.1534 100.422 2.41868 149.131 1.61779L149.131 180.488Z" stroke="white" stroke-width="3"/>
<path d="M525.236 180.488C476.528 179.687 437.289 139.952 437.289 91.0528C437.289 42.1534 476.528 2.41868 525.236 1.61779V180.488Z" stroke="white" stroke-width="3"/>
<path d="M-16.5006 14.8843C24.8824 15.6835 58.1836 49.4798 58.1836 91.0541C58.1836 132.628 24.8824 166.425 -16.5006 167.224L-16.5006 14.8843Z" stroke="white" stroke-width="3"/>
<path d="M360.552 14.8847C401.395 15.6937 434.289 49.4692 434.289 91.0541C434.289 132.639 401.395 166.414 360.552 167.223L360.552 14.8847Z" stroke="white" stroke-width="3"/>
<circle cx="252" cy="91.0524" r="67.6579" stroke="white" stroke-width="3"/>
<circle cx="629.052" cy="91.0524" r="67.6579" stroke="white" stroke-width="3"/>
<circle r="43.0263" transform="matrix(1 0 0 -1 252.001 91.0518)" stroke="white" stroke-width="3"/>
<circle r="43.0263" transform="matrix(1 0 0 -1 629.052 91.0518)" stroke="white" stroke-width="3"/>
</svg>
