<svg width="738" height="182" viewBox="0 0 738 182" fill="none" xmlns="http://www.w3.org/2000/svg">
<circle cx="270" cy="90.9476" r="89.4474" stroke="white" stroke-width="3"/>
<circle cx="647.053" cy="90.9476" r="89.4474" stroke="white" stroke-width="3"/>
<path d="M23.289 1.51237C71.9975 2.31324 111.236 42.048 111.236 90.9474C111.236 139.847 71.9975 179.582 23.2889 180.382L23.289 1.51237Z" stroke="white" stroke-width="3"/>
<path d="M400.342 1.51263C448.513 2.32191 487.342 42.0388 487.342 90.9474C487.342 139.856 448.513 179.573 400.342 180.382L400.342 1.51263Z" stroke="white" stroke-width="3"/>
<path d="M167.131 180.383C118.422 179.582 79.1836 139.847 79.1836 90.9476C79.1836 42.0482 118.422 2.31345 167.131 1.51257L167.131 180.383Z" stroke="white" stroke-width="3"/>
<path d="M543.236 180.383C494.528 179.582 455.289 139.847 455.289 90.9476C455.289 42.0482 494.528 2.31345 543.236 1.51257V180.383Z" stroke="white" stroke-width="3"/>
<path d="M1.49938 14.7791C42.8824 15.5783 76.1836 49.3746 76.1836 90.9488C76.1836 132.523 42.8824 166.319 1.49937 167.119L1.49938 14.7791Z" stroke="white" stroke-width="3"/>
<path d="M378.552 14.7795C419.395 15.5885 452.289 49.364 452.289 90.9488C452.289 132.534 419.395 166.309 378.552 167.118L378.552 14.7795Z" stroke="white" stroke-width="3"/>
<circle cx="270" cy="90.9472" r="67.6579" stroke="white" stroke-width="3"/>
<circle cx="647.052" cy="90.9472" r="67.6579" stroke="white" stroke-width="3"/>
<circle r="43.0263" transform="matrix(1 0 0 -1 270.001 90.9466)" stroke="white" stroke-width="3"/>
<circle r="43.0263" transform="matrix(1 0 0 -1 647.052 90.9466)" stroke="white" stroke-width="3"/>
</svg>
