<svg width="188" height="190" viewBox="0 0 188 190" fill="none" xmlns="http://www.w3.org/2000/svg">
<path d="M48.4471 48.9117L2.71094 94.7965L48.4471 140.681M48.4471 48.9117L94.1832 3.02686L139.919 48.9117M48.4471 48.9117H94.1832M48.4471 48.9117V94.7965M139.919 48.9117L185.656 94.7965L139.919 140.681M139.919 48.9117H94.1832M139.919 48.9117V94.7965M139.919 140.681L94.1832 186.566L48.4471 140.681M139.919 140.681H94.1832M139.919 140.681V94.7965M48.4471 140.681V94.7965M48.4471 140.681H94.1832M94.1832 48.9117L71.3152 71.8541M94.1832 48.9117L117.051 71.8541M48.4471 94.7965L71.3152 71.8541M48.4471 94.7965L71.3152 117.739M94.1832 140.681L117.051 117.739M94.1832 140.681L71.3152 117.739M139.919 94.7965L117.051 117.739M139.919 94.7965L117.051 71.8541M71.3152 71.8541L117.051 117.739M117.051 71.8541L71.3152 117.739" stroke="white" stroke-width="3"/>
</svg>
