<svg width="92" height="92" viewBox="0 0 92 92" fill="none" xmlns="http://www.w3.org/2000/svg">
<path d="M23.7057 23.6835L1.32422 45.9014L23.7057 68.1193M23.7057 23.6835L46.0873 1.46558L68.4688 23.6835M23.7057 23.6835H46.0873M23.7057 23.6835V45.9014M68.4688 23.6835L90.8503 45.9014L68.4688 68.1193M68.4688 23.6835H46.0873M68.4688 23.6835V45.9014M68.4688 68.1193L46.0873 90.3372L23.7057 68.1193M68.4688 68.1193H46.0873M68.4688 68.1193V45.9014M23.7057 68.1193V45.9014M23.7057 68.1193H46.0873M46.0873 23.6835L34.8965 34.7924M46.0873 23.6835L57.278 34.7924M23.7057 45.9014L34.8965 34.7924M23.7057 45.9014L34.8965 57.0103M46.0873 68.1193L57.278 57.0103M46.0873 68.1193L34.8965 57.0103M68.4688 45.9014L57.278 57.0103M68.4688 45.9014L57.278 34.7924M34.8965 34.7924L57.278 57.0103M57.278 34.7924L34.8965 57.0103" stroke="white" stroke-width="3"/>
</svg>
