<svg width="2067" height="509" viewBox="0 0 2067 509" fill="none" xmlns="http://www.w3.org/2000/svg">
<path d="M1056.79 254.5C1056.79 114.772 1170.06 1.50003 1309.79 1.50004C1449.52 1.50005 1562.79 114.772 1562.79 254.5C1562.79 394.228 1449.52 507.5 1309.79 507.5C1170.06 507.5 1056.79 394.228 1056.79 254.5Z" stroke="#252525" stroke-width="3"/>
<path d="M1.50005 254.5C1.50006 114.772 114.772 1.50003 254.5 1.50004C394.228 1.50005 507.5 114.772 507.5 254.5C507.5 394.228 394.228 507.5 254.5 507.5C114.772 507.5 1.50004 394.228 1.50005 254.5Z" stroke="#252525" stroke-width="3"/>
<path d="M2001.59 507.496C1863.78 506.681 1752.29 393.735 1752.29 254.5C1752.29 115.265 1863.78 2.31869 2001.59 1.50447L2001.59 507.496Z" stroke="#252525" stroke-width="3"/>
<path d="M948.486 507.496C809.448 506.688 696.986 393.728 696.986 254.5C696.986 115.272 809.449 2.3116 948.486 1.5044L948.486 507.496Z" stroke="#252525" stroke-width="3"/>
<path d="M1594.32 1.50431C1734.58 2.30462 1848.01 115.28 1848.01 254.5C1848.01 393.72 1734.58 506.695 1594.32 507.496L1594.32 1.50431Z" stroke="#252525" stroke-width="3"/>
<path d="M543.409 1.50446C681.223 2.31869 792.715 115.265 792.715 254.5C792.715 393.735 681.223 506.681 543.409 507.496L543.409 1.50446Z" stroke="#252525" stroke-width="3"/>
<path d="M2065.22 470.197C1946.78 469.39 1851.01 373.128 1851.01 254.499C1851.01 135.871 1946.78 39.6086 2065.22 38.802L2065.22 470.197Z" stroke="#252525" stroke-width="3"/>
<path d="M1009.92 470.197C891.479 469.39 795.715 373.128 795.715 254.499C795.715 135.871 891.479 39.6086 1009.92 38.802L1009.92 470.197Z" stroke="#252525" stroke-width="3"/>
<path d="M1118.23 254.503C1118.23 148.711 1204.48 62.9344 1310.89 62.9344C1417.31 62.9344 1503.56 148.711 1503.56 254.503C1503.56 360.296 1417.31 446.072 1310.89 446.072C1204.48 446.072 1118.23 360.296 1118.23 254.503Z" stroke="#252525" stroke-width="3"/>
<path d="M62.9265 254.503C62.9265 148.703 148.695 62.9344 254.496 62.9344C360.296 62.9344 446.064 148.703 446.064 254.503C446.064 360.304 360.296 446.072 254.495 446.072C148.695 446.072 62.9265 360.304 62.9265 254.503Z" stroke="#252525" stroke-width="3"/>
<path d="M1188.43 254.503C1188.43 322.754 1243.27 378.059 1310.89 378.059C1378.51 378.059 1433.35 322.754 1433.35 254.503C1433.35 186.253 1378.51 130.947 1310.89 130.947C1243.27 130.947 1188.43 186.253 1188.43 254.503Z" stroke="#252525" stroke-width="3"/>
<path d="M130.948 254.503C130.948 322.741 186.266 378.059 254.505 378.059C322.743 378.059 378.061 322.741 378.061 254.503C378.061 186.265 322.743 130.947 254.505 130.947C186.266 130.947 130.948 186.265 130.948 254.503Z" stroke="#252525" stroke-width="3"/>
</svg>
