<svg width="942" height="232" viewBox="0 0 942 232" fill="none" xmlns="http://www.w3.org/2000/svg">
<path d="M482.5 116C482.5 52.7634 533.763 1.5 597 1.50001C660.237 1.50001 711.5 52.7634 711.5 116C711.5 179.237 660.237 230.5 597 230.5C533.763 230.5 482.5 179.237 482.5 116Z" stroke="#252525" stroke-width="3"/>
<path d="M1.49999 116C1.5 52.7634 52.7634 1.5 116 1.50001C179.237 1.50001 230.5 52.7634 230.5 116C230.5 179.237 179.237 230.5 116 230.5C52.7634 230.5 1.49999 179.237 1.49999 116Z" stroke="#252525" stroke-width="3"/>
<path d="M911.5 230.49C849.519 229.68 799.5 178.743 799.5 116C799.5 53.2565 849.519 2.3198 911.5 1.50982L911.5 230.49Z" stroke="#252525" stroke-width="3"/>
<path d="M431.5 230.49C368.955 229.687 318.5 178.736 318.5 116C318.5 53.2642 368.955 2.31266 431.5 1.50964L431.5 230.49Z" stroke="#252525" stroke-width="3"/>
<path d="M727.5 1.50947C790.609 2.30564 841.5 53.2718 841.5 116C841.5 178.728 790.609 229.694 727.5 230.491L727.5 1.50947Z" stroke="#252525" stroke-width="3"/>
<path d="M248.5 1.5098C310.481 2.31979 360.5 53.2565 360.5 116C360.5 178.743 310.481 229.68 248.5 230.49L248.5 1.5098Z" stroke="#252525" stroke-width="3"/>
<path d="M940.5 213.489C887.344 212.687 844.5 169.347 844.5 116C844.5 62.6531 887.344 19.313 940.5 18.5113L940.5 213.489Z" stroke="#252525" stroke-width="3"/>
<path d="M459.5 213.489C406.344 212.687 363.5 169.347 363.5 116C363.5 62.6531 406.344 19.313 459.5 18.5113L459.5 213.489Z" stroke="#252525" stroke-width="3"/>
<path d="M510.5 116C510.5 68.2354 549.443 29.5 597.5 29.5C645.557 29.5 684.5 68.2354 684.5 116C684.5 163.765 645.557 202.5 597.5 202.5C549.443 202.5 510.5 163.765 510.5 116Z" stroke="#252525" stroke-width="3"/>
<path d="M29.5 116C29.5 68.2274 68.2274 29.5 116 29.5C163.773 29.5 202.5 68.2274 202.5 116C202.5 163.773 163.773 202.5 116 202.5C68.2274 202.5 29.5 163.773 29.5 116Z" stroke="#252525" stroke-width="3"/>
<path d="M542.5 116C542.5 146.664 567.137 171.5 597.5 171.5C627.863 171.5 652.5 146.664 652.5 116C652.5 85.3357 627.863 60.5 597.5 60.5C567.137 60.5 542.5 85.3357 542.5 116Z" stroke="#252525" stroke-width="3"/>
<path d="M60.5 116C60.5 146.652 85.3482 171.5 116 171.5C146.652 171.5 171.5 146.652 171.5 116C171.5 85.3482 146.652 60.5 116 60.5C85.3482 60.5 60.5 85.3482 60.5 116Z" stroke="#252525" stroke-width="3"/>
</svg>
