<svg width="1365" height="456" viewBox="0 0 1365 456" fill="none" xmlns="http://www.w3.org/2000/svg">
<path d="M56.1065 1.50495C180.451 2.31176 281.002 103.361 281.002 227.896C281.002 352.43 180.451 453.479 56.1065 454.286L56.1065 1.50495Z" stroke="#252525" stroke-width="3"/>
<path d="M1000.92 1.50508C1123.93 2.32036 1223.44 103.352 1223.44 227.896C1223.44 352.439 1123.93 453.471 1000.92 454.286L1000.92 1.50508Z" stroke="#252525" stroke-width="3"/>
<path d="M421.056 454.286C296.711 453.479 196.16 352.43 196.16 227.895C196.16 103.361 296.711 2.31168 421.056 1.50487L421.056 454.286Z" stroke="#252525" stroke-width="3"/>
<path d="M1363.5 454.286C1239.15 453.479 1138.6 352.43 1138.6 227.895C1138.6 103.361 1239.15 2.31168 1363.5 1.50487V454.286Z" stroke="#252525" stroke-width="3"/>
<path d="M1.49945 34.7487C107.489 35.5549 193.16 121.724 193.16 227.904C193.16 334.083 107.489 420.253 1.49942 421.059L1.49945 34.7487Z" stroke="#252525" stroke-width="3"/>
<path d="M946.317 34.7489C1050.98 35.565 1135.6 121.713 1135.6 227.904C1135.6 334.094 1050.98 420.243 946.317 421.059L946.317 34.7489Z" stroke="#252525" stroke-width="3"/>
<circle cx="676.571" cy="227.897" r="171.796" stroke="#252525" stroke-width="3"/>
<circle r="110.074" transform="matrix(1 0 0 -1 676.57 227.897)" stroke="#252525" stroke-width="3"/>
</svg>
