<svg width="270" height="371" viewBox="0 0 270 371" fill="none" xmlns="http://www.w3.org/2000/svg">
<path d="M53.418 1L86.5646 38.9433L53.418 76.8866" stroke="#252525" stroke-width="2" stroke-miterlimit="10"/>
<path d="M53.418 193L86.5646 230.943L53.418 268.887" stroke="#252525" stroke-width="2" stroke-miterlimit="10"/>
<path d="M215.25 177.637L182.437 139.405L215.25 99.2148" stroke="#252525" stroke-width="2" stroke-miterlimit="10"/>
<path d="M215.25 369.637L182.437 331.405L215.25 291.215" stroke="#252525" stroke-width="2" stroke-miterlimit="10"/>
<path d="M139.57 1L172.717 38.9433L139.57 76.8866" stroke="#252525" stroke-width="2" stroke-miterlimit="10"/>
<path d="M139.57 193L172.717 230.943L139.57 268.887" stroke="#252525" stroke-width="2" stroke-miterlimit="10"/>
<path d="M129.102 176.883L96.2881 138.651L129.102 98.2148" stroke="#252525" stroke-width="2" stroke-miterlimit="10"/>
<path d="M129.102 368.883L96.2881 330.651L129.102 290.215" stroke="#252525" stroke-width="2" stroke-miterlimit="10"/>
<path d="M225.723 1L258.869 38.9433L225.723 76.8866" stroke="#252525" stroke-width="2" stroke-miterlimit="10"/>
<path d="M225.723 193L258.869 230.943L225.723 268.887" stroke="#252525" stroke-width="2" stroke-miterlimit="10"/>
<path d="M42.957 176.133L10.1436 137.901L42.957 96.2178" stroke="#252525" stroke-width="2" stroke-miterlimit="10"/>
<path d="M42.957 368.133L10.1436 329.901L42.957 288.218" stroke="#252525" stroke-width="2" stroke-miterlimit="10"/>
<path d="M86 39.2148H0" stroke="#252525" stroke-width="2"/>
<path d="M86 231.215H0" stroke="#252525" stroke-width="2"/>
<path d="M182.852 139.344L269 140.098" stroke="#252525" stroke-width="2"/>
<path d="M182.852 331.344L269 332.098" stroke="#252525" stroke-width="2"/>
<path d="M172 39.2148H86" stroke="#252525" stroke-width="2"/>
<path d="M172 231.215H86" stroke="#252525" stroke-width="2"/>
<path d="M96.7075 138.59L182.855 139.344" stroke="#252525" stroke-width="2"/>
<path d="M96.7075 330.59L182.855 331.344" stroke="#252525" stroke-width="2"/>
<path d="M258 39.2148H172" stroke="#252525" stroke-width="2"/>
<path d="M258 231.215H172" stroke="#252525" stroke-width="2"/>
<path d="M10.5552 137.84L96.7031 138.594" stroke="#252525" stroke-width="2"/>
<path d="M10.5552 329.84L96.7031 330.594" stroke="#252525" stroke-width="2"/>
<path d="M130 40.2148L55 138.215" stroke="#252525" stroke-width="2"/>
<path d="M130 232.215L55 330.215" stroke="#252525" stroke-width="2"/>
<path d="M220 40.2148L144 138.215" stroke="#252525" stroke-width="2"/>
<path d="M220 232.215L144 330.215" stroke="#252525" stroke-width="2"/>
</svg>
