<svg width="27" height="27" viewBox="0 0 27 27" fill="none" xmlns="http://www.w3.org/2000/svg">
<path d="M22.0833 7.08333L3.59375 25.625C3.17708 26.0417 2.68194 26.25 2.10833 26.25C1.53611 26.25 1.04167 26.0417 0.624999 25.625C0.208333 25.2083 0 24.7132 0 24.1396C0 23.5674 0.208333 23.0729 0.624999 22.6562L19.1667 4.16667H3.33333C2.74306 4.16667 2.24792 3.96736 1.84792 3.56875C1.44931 3.16875 1.25 2.67361 1.25 2.08333C1.25 1.49306 1.44931 0.997917 1.84792 0.597917C2.24792 0.199306 2.74306 0 3.33333 0H24.1667C24.7569 0 25.2514 0.199306 25.65 0.597917C26.05 0.997917 26.25 1.49306 26.25 2.08333V22.9167C26.25 23.5069 26.05 24.0014 25.65 24.4C25.2514 24.8 24.7569 25 24.1667 25C23.5764 25 23.0819 24.8 22.6833 24.4C22.2833 24.0014 22.0833 23.5069 22.0833 22.9167V7.08333Z" fill="#252525"/>
</svg>
