<svg width="257" height="62" viewBox="0 0 257 62" fill="none" xmlns="http://www.w3.org/2000/svg">
<g clip-path="url(#clip0_2801_17936)">
<path d="M23.1101 0.792969L14.9419 10.5301L5.77752 0.792969H0V28.4148H6.37519V12.5173L14.9419 21.4596L22.7116 12.3186V28.4148H28.8876V0.792969H23.1101Z" fill="#781E7D"/>
<path d="M104.194 28.4148L94.8306 14.3058L103.796 0.792969H96.4244L91.0453 9.73528L85.2678 0.792969H77.8965L86.6624 14.3058L77.498 28.4148H84.8694L90.8461 19.075L96.6236 28.4148H104.194Z" fill="#781E7D"/>
<path d="M116.746 28.4148H123.121V0.792969H116.746V28.4148Z" fill="#781E7D"/>
<path d="M61.5605 28.4167H68.3341L53.7907 0L39.6458 28.4167H46.0209L53.7907 11.9231L61.5605 28.4167Z" fill="#781E7D"/>
<path d="M251.421 23.0494H232.894L231.698 28.4148H250.226L251.421 23.0494ZM254.211 11.9212H235.683L234.487 17.2866H253.015L254.211 11.9212ZM257 0.792969H238.472L237.277 6.15835H255.804L257 0.792969Z" fill="#781E7D"/>
<path d="M160.973 0.792969L152.805 10.5301L143.641 0.792969H137.863V28.4148H144.238V12.5173L152.805 21.4596L160.376 12.3186V28.4148H166.751V0.792969H160.973Z" fill="#781E7D"/>
<path d="M180.697 28.4148H186.873V0.792969H180.697V28.4148Z" fill="#781E7D"/>
<path d="M205.401 14.5064C205.401 9.14102 208.788 6.16026 213.171 6.16026C215.761 6.16026 217.554 7.15385 218.948 7.94872L221.538 2.98077C219.944 1.39103 216.757 0 212.971 0C203.409 0 198.428 6.35897 198.428 14.3077C198.428 22.8526 204.405 28.6154 212.971 28.6154C216.757 28.6154 220.343 27.2244 221.937 25.4359L219.546 20.6667C217.753 22.0577 215.561 22.6538 213.569 22.6538C208.788 23.0513 205.401 19.4744 205.401 14.5064Z" fill="#781E7D"/>
<path d="M5.1798 53.8516C6.17592 53.8516 6.97282 54.0503 7.57049 54.6464C8.16817 55.2426 8.36739 55.8387 8.36739 56.8323C8.36739 57.4285 8.16817 58.0246 7.96894 58.4221C7.76972 58.8195 7.37127 59.2169 6.7736 59.4157C6.17592 59.6144 5.77747 59.8131 4.98057 59.8131H3.38677V61.999H1.59375V54.0503H5.1798V53.8516ZM3.38677 58.2234H4.98057C5.37902 58.2234 5.77747 58.0246 6.17592 57.8259C6.37515 57.6272 6.57437 57.2298 6.57437 56.8323C6.57437 56.4349 6.37515 56.0375 6.17592 55.8387C5.9767 55.64 5.57825 55.4413 5.1798 55.4413H3.38677V58.2234Z" fill="#781E7D"/>
<path d="M22.9113 53.8516C23.5089 53.8516 24.1066 54.0503 24.7043 54.249C25.302 54.4477 25.7004 54.8452 26.0989 55.0439C26.4973 55.4413 26.6965 55.8387 26.8958 56.4349C27.095 57.031 27.2942 57.4285 27.2942 58.0246C27.2942 58.6208 27.095 59.2169 26.8958 59.6144C26.6965 60.2105 26.2981 60.608 26.0989 61.0054C25.7004 61.4028 25.302 61.6016 24.7043 61.999C24.1066 62.1977 23.5089 62.3964 22.9113 62.3964C22.3136 62.3964 21.7159 62.1977 21.1182 61.999C20.5206 61.8003 20.1221 61.4028 19.7237 61.2041C19.3252 61.0054 19.126 60.0118 18.9268 59.6144C18.7275 59.2169 18.5283 58.6208 18.5283 58.0246C18.5283 57.2298 18.7275 56.6336 19.126 55.8387C19.5244 55.2426 19.9229 54.6464 20.7198 54.249C21.5167 53.8516 21.9151 53.8516 22.9113 53.8516ZM22.9113 55.4413C22.3136 55.4413 21.9151 55.64 21.5167 55.8387C21.1182 56.0375 20.919 56.4349 20.7198 56.8323C20.5206 57.2298 20.5206 57.6272 20.5206 58.2234C20.5206 59.0182 20.7198 59.6144 21.1182 60.0118C21.5167 60.4093 22.1144 60.8067 22.9113 60.8067C23.5089 60.8067 23.9074 60.608 24.3058 60.4093C24.7043 60.2105 24.9035 59.8131 25.1027 59.4157C25.302 59.0182 25.302 58.6208 25.302 58.2234C25.302 57.4285 25.1027 56.8323 24.7043 56.4349C24.3058 56.0375 23.5089 55.4413 22.9113 55.4413Z" fill="#781E7D"/>
<path d="M38.8487 53.8516L40.2433 59.6144H40.4425L41.8371 54.0503H43.4309L44.8254 59.6144H45.0247L46.4192 53.8516H48.4115L46.22 61.8003H43.8293L42.634 57.0311H42.4347L41.2394 61.8003H39.0479L36.8564 53.8516H38.8487Z" fill="#781E7D"/>
<path d="M64.7482 53.8516V55.4413H60.5645V57.0311H64.3498V58.6208H60.5645V60.4093H64.9475V61.999H58.7715V54.0503H64.7482V53.8516Z" fill="#781E7D"/>
<path d="M79.0919 53.8516C80.088 53.8516 80.6857 54.0503 81.2834 54.6464C81.881 55.2426 82.0803 55.8387 82.0803 56.6336C82.0803 57.2298 81.881 57.6272 81.6818 58.0246C81.4826 58.4221 81.0842 58.8195 80.4865 59.0182L82.4787 61.8003H80.2872L78.8927 59.6144H77.2989V61.999H75.5059V54.0503H79.0919V53.8516ZM77.2989 58.0246H79.0919C79.4904 58.0246 79.8888 57.8259 80.088 57.6272C80.2873 57.4285 80.4865 57.031 80.4865 56.8323C80.4865 56.4349 80.2873 56.2362 80.088 56.0375C79.8888 55.8387 79.4904 55.64 79.0919 55.64H77.2989V58.0246Z" fill="#781E7D"/>
<path d="M112.562 53.8516V55.64H109.773V61.999H107.98V55.64H105.19V54.0503H112.562V53.8516Z" fill="#781E7D"/>
<path d="M126.707 53.8516C127.305 53.8516 127.903 54.0503 128.5 54.249C129.098 54.4477 129.496 54.8452 129.895 55.0439C130.293 55.4413 130.492 55.8387 130.692 56.4349C130.891 57.031 131.09 57.4285 131.09 58.0246C131.09 58.6208 130.891 59.2169 130.692 59.6144C130.492 60.2105 130.094 60.608 129.895 61.0054C129.496 61.4028 129.098 61.6016 128.5 61.999C127.903 62.1977 127.305 62.3964 126.707 62.3964C126.109 62.3964 125.512 62.1977 124.914 61.999C124.316 61.8003 123.918 61.4028 123.52 61.2041C123.121 61.0054 122.922 60.4093 122.723 59.8131C122.523 59.2169 122.324 58.8195 122.324 58.2234C122.324 57.4285 122.523 56.8323 122.922 56.0375C123.32 55.4413 123.719 54.8452 124.516 54.4477C125.313 54.0503 125.91 53.8516 126.707 53.8516ZM126.707 55.4413C126.109 55.4413 125.711 55.64 125.313 55.8387C124.914 56.0375 124.715 56.4349 124.516 56.8323C124.316 57.2298 124.316 57.6272 124.316 58.2234C124.316 59.0182 124.516 59.6144 124.914 60.0118C125.313 60.4093 125.91 60.8067 126.707 60.8067C127.305 60.8067 127.703 60.608 128.102 60.4093C128.5 60.2105 128.699 59.8131 128.899 59.4157C129.098 59.0182 129.098 58.6208 129.098 58.2234C129.098 57.4285 128.899 56.8323 128.5 56.4349C128.102 56.0375 127.504 55.4413 126.707 55.4413Z" fill="#781E7D"/>
<path d="M160.376 56.2357C159.778 55.6395 158.982 55.4408 158.185 55.4408C157.388 55.4408 156.79 55.6395 156.392 56.2357C155.993 56.8318 155.595 57.2293 155.595 58.0241C155.595 58.819 155.794 59.4152 156.392 59.8126C156.989 60.21 157.388 60.6075 158.185 60.6075C159.181 60.6075 159.778 60.21 160.575 59.6139L161.572 60.8062C160.575 61.6011 159.579 62.1972 158.185 62.1972C157.388 62.1972 156.591 61.9985 155.993 61.6011C155.396 61.2036 154.798 60.8062 154.599 60.21C154.2 59.6139 154.001 58.819 154.001 58.0241C154.001 57.428 154.2 56.8318 154.399 56.4344C154.599 56.037 154.798 55.4408 155.196 55.0434C155.595 54.6459 155.993 54.4472 156.591 54.0498C157.189 53.6523 157.786 53.6523 158.384 53.6523C159.579 53.6523 160.575 54.0498 161.572 54.8447L160.376 56.2357Z" fill="#781E7D"/>
<path d="M173.923 53.8516V57.0311H177.31V53.8516H179.103V61.8003H177.31V58.6208H173.724V61.8003H171.931V53.8516H173.923Z" fill="#781E7D"/>
<path d="M194.842 53.8516L198.229 61.8003H196.237L195.639 60.2105H192.252L191.654 61.8003H189.662L192.85 53.8516H194.842ZM192.85 58.8195H195.041L194.045 55.64H193.846L192.85 58.8195Z" fill="#781E7D"/>
<path d="M215.959 53.8516V61.8003H214.166L210.381 56.6336V61.8003H208.588V53.8516H210.182L214.166 59.2169V53.8516H215.959Z" fill="#781E7D"/>
<path d="M234.089 57.428V61.2036C233.292 61.7998 232.097 62.1972 230.902 62.1972C230.105 62.1972 229.308 61.9985 228.71 61.6011C228.112 61.2036 227.515 60.8062 227.116 60.21C226.718 59.6139 226.519 58.819 226.519 58.0241C226.519 57.428 226.718 56.8318 226.917 56.4344C227.116 55.8382 227.315 55.4408 227.714 55.0434C228.112 54.6459 228.511 54.4472 229.108 54.0498C229.706 53.6523 230.304 53.6523 230.902 53.6523C232.097 53.6523 233.093 54.0498 233.89 54.8447L232.894 56.037C232.296 55.4408 231.698 55.2421 230.702 55.2421C229.905 55.2421 229.308 55.4408 228.909 55.8382C228.511 56.2357 228.112 56.8318 228.112 57.6267C228.112 58.4216 228.312 59.0177 228.909 59.4152C229.507 59.8126 229.905 60.0113 230.702 60.0113C231.3 60.0113 231.698 59.8126 232.097 59.6139V58.4216H230.702V56.8318H234.089V57.428Z" fill="#781E7D"/>
<path d="M250.824 53.8516V55.4413H246.641V57.0311H250.426V58.6208H246.641V60.4093H251.024V61.999H244.848V54.0503H250.824V53.8516Z" fill="#781E7D"/>
</g>
<defs>
<clipPath id="clip0_2801_17936">
<rect width="257" height="62" fill="white"/>
</clipPath>
</defs>
</svg>
