<svg width="179" height="44" viewBox="0 0 179 44" fill="none" xmlns="http://www.w3.org/2000/svg">
<g clip-path="url(#clip0_2828_17521)">
<path d="M16.0961 1.05127L10.407 7.80448L4.02403 1.05127H0V20.2083H4.44031V9.18268L10.407 15.3846L15.8186 9.04486V20.2083H20.1202V1.05127H16.0961Z" fill="white"/>
<path d="M72.5713 20.2083L66.0496 10.4231L72.2938 1.05127H67.1597L63.4132 7.25319L59.3892 1.05127H54.2551L60.3605 10.4231L53.9775 20.2083H59.1116L63.2744 13.7308L67.2985 20.2083H72.5713Z" fill="white"/>
<path d="M81.3132 20.2083H85.7535V1.05127H81.3132V20.2083Z" fill="white"/>
<path d="M42.8767 20.2083H47.5946L37.4651 0.5L27.6132 20.2083H32.0535L37.4651 8.76923L42.8767 20.2083Z" fill="white"/>
<path d="M175.115 16.4872H162.21L161.378 20.2083H174.282L175.115 16.4872ZM177.057 8.76922H164.153L163.32 12.4904H176.225L177.057 8.76922ZM179 1.05127H166.095L165.263 4.77242H178.167L179 1.05127Z" fill="white"/>
<path d="M112.118 1.05127L106.429 7.80448L100.046 1.05127H96.0217V20.2083H100.462V9.18268L106.429 15.3846L111.702 9.04486V20.2083H116.142V1.05127H112.118Z" fill="white"/>
<path d="M125.855 20.2083H130.157V1.05127H125.855V20.2083Z" fill="white"/>
<path d="M143.061 10.5609C143.061 6.83974 145.42 4.77244 148.473 4.77244C150.277 4.77244 151.526 5.46154 152.497 6.01282L154.301 2.56731C153.191 1.46474 150.971 0.5 148.334 0.5C141.674 0.5 138.205 4.91026 138.205 10.4231C138.205 16.3494 142.367 20.3462 148.334 20.3462C150.971 20.3462 153.468 19.3814 154.578 18.141L152.913 14.8333C151.664 15.7981 150.138 16.2115 148.75 16.2115C145.42 16.4872 143.061 14.0064 143.061 10.5609Z" fill="white"/>
<path d="M3.60778 37.8494C4.30158 37.8494 4.85662 37.9872 5.2729 38.4006C5.68918 38.8141 5.82794 39.2276 5.82794 39.9167C5.82794 40.3301 5.68918 40.7436 5.55042 41.0192C5.41166 41.2949 5.13414 41.5705 4.71786 41.7083C4.30158 41.8462 4.02406 41.984 3.46902 41.984H2.35894V43.5H1.11011V37.9872H3.60778V37.8494ZM2.35894 40.8814H3.46902C3.74654 40.8814 4.02406 40.7436 4.30158 40.6058C4.44034 40.468 4.5791 40.1923 4.5791 39.9167C4.5791 39.641 4.44034 39.3654 4.30158 39.2276C4.16282 39.0897 3.8853 38.9519 3.60778 38.9519H2.35894V40.8814Z" fill="white"/>
<path d="M15.9574 37.8494C16.3737 37.8494 16.7899 37.9872 17.2062 38.125C17.6225 38.2628 17.9 38.5385 18.1775 38.6763C18.4551 38.9519 18.5938 39.2276 18.7326 39.641C18.8713 40.0545 19.0101 40.3301 19.0101 40.7436C19.0101 41.1571 18.8713 41.5705 18.7326 41.8462C18.5938 42.2596 18.3163 42.5353 18.1775 42.8109C17.9 43.0865 17.6225 43.2244 17.2062 43.5C16.7899 43.6378 16.3737 43.7756 15.9574 43.7756C15.5411 43.7756 15.1248 43.6378 14.7085 43.5C14.2923 43.3622 14.0147 43.0865 13.7372 42.9487C13.4597 42.8109 13.3209 42.1218 13.1822 41.8462C13.0434 41.5705 12.9047 41.1571 12.9047 40.7436C12.9047 40.1923 13.0434 39.7789 13.3209 39.2276C13.5985 38.8141 13.876 38.4006 14.431 38.125C14.9861 37.8494 15.2636 37.8494 15.9574 37.8494ZM15.9574 38.9519C15.5411 38.9519 15.2636 39.0897 14.9861 39.2276C14.7085 39.3654 14.5698 39.641 14.431 39.9167C14.2923 40.1923 14.2923 40.468 14.2923 40.8814C14.2923 41.4327 14.431 41.8462 14.7085 42.1218C14.9861 42.3974 15.4023 42.6731 15.9574 42.6731C16.3737 42.6731 16.6512 42.5353 16.9287 42.3974C17.2062 42.2596 17.345 41.984 17.4837 41.7083C17.6225 41.4327 17.6225 41.1571 17.6225 40.8814C17.6225 40.3301 17.4837 39.9167 17.2062 39.641C16.9287 39.3654 16.3737 38.9519 15.9574 38.9519Z" fill="white"/>
<path d="M27.0582 37.8494L28.0295 41.8462H28.1683L29.1396 37.9872H30.2497L31.221 41.8462H31.3597L32.3311 37.8494H33.7187L32.1923 43.3622H30.5272L29.6946 40.0545H29.5559L28.7233 43.3622H27.197L25.6706 37.8494H27.0582Z" fill="white"/>
<path d="M45.0969 37.8494V38.9519H42.183V40.0545H44.8194V41.1571H42.183V42.3974H45.2357V43.5H40.9341V37.9872H45.0969V37.8494Z" fill="white"/>
<path d="M55.0876 37.8494C55.7814 37.8494 56.1977 37.9872 56.614 38.4006C57.0303 38.8141 57.169 39.2276 57.169 39.7789C57.169 40.1923 57.0303 40.468 56.8915 40.7436C56.7528 41.0192 56.4752 41.2949 56.059 41.4327L57.4466 43.3622H55.9202L54.9489 41.8462H53.8388V43.5H52.59V37.9872H55.0876V37.8494ZM53.8388 40.7436H55.0876C55.3652 40.7436 55.6427 40.6058 55.7814 40.468C55.9202 40.3301 56.059 40.0545 56.059 39.9167C56.059 39.641 55.9202 39.5032 55.7814 39.3654C55.6427 39.2276 55.3652 39.0897 55.0876 39.0897H53.8388V40.7436Z" fill="white"/>
<path d="M78.3992 37.8494V39.0897H76.4566V43.5H75.2078V39.0897H73.2651V37.9872H78.3992V37.8494Z" fill="white"/>
<path d="M88.2512 37.8494C88.6675 37.8494 89.0838 37.9872 89.5 38.125C89.9163 38.2628 90.1938 38.5385 90.4713 38.6763C90.7489 38.9519 90.8876 39.2276 91.0264 39.641C91.1651 40.0545 91.3039 40.3301 91.3039 40.7436C91.3039 41.1571 91.1651 41.5705 91.0264 41.8462C90.8876 42.2596 90.6101 42.5353 90.4713 42.8109C90.1938 43.0865 89.9163 43.2244 89.5 43.5C89.0838 43.6378 88.6675 43.7756 88.2512 43.7756C87.8349 43.7756 87.4186 43.6378 87.0024 43.5C86.5861 43.3622 86.3086 43.0865 86.031 42.9487C85.7535 42.8109 85.6148 42.3974 85.476 41.984C85.3372 41.5705 85.1985 41.2949 85.1985 40.8814C85.1985 40.3301 85.3372 39.9167 85.6148 39.3654C85.8923 38.9519 86.1698 38.5385 86.7248 38.2628C87.2799 37.9872 87.6962 37.8494 88.2512 37.8494ZM88.2512 38.9519C87.8349 38.9519 87.5574 39.0897 87.2799 39.2276C87.0024 39.3654 86.8636 39.641 86.7248 39.9167C86.5861 40.1923 86.5861 40.468 86.5861 40.8814C86.5861 41.4327 86.7248 41.8462 87.0024 42.1218C87.2799 42.3974 87.6962 42.6731 88.2512 42.6731C88.6675 42.6731 88.945 42.5353 89.2225 42.3974C89.5 42.2596 89.6388 41.984 89.7775 41.7083C89.9163 41.4327 89.9163 41.1571 89.9163 40.8814C89.9163 40.3301 89.7776 39.9167 89.5 39.641C89.2225 39.3654 88.8062 38.9519 88.2512 38.9519Z" fill="white"/>
<path d="M111.702 39.5032C111.285 39.0898 110.73 38.9519 110.175 38.9519C109.62 38.9519 109.204 39.0898 108.926 39.5032C108.649 39.9167 108.371 40.1923 108.371 40.7436C108.371 41.2949 108.51 41.7083 108.926 41.984C109.343 42.2596 109.62 42.5353 110.175 42.5353C110.869 42.5353 111.285 42.2596 111.84 41.8462L112.534 42.6731C111.84 43.2244 111.147 43.6378 110.175 43.6378C109.62 43.6378 109.065 43.5 108.649 43.2244C108.233 42.9487 107.816 42.6731 107.678 42.2596C107.4 41.8462 107.261 41.2949 107.261 40.7436C107.261 40.3301 107.4 39.9167 107.539 39.641C107.678 39.3654 107.816 38.9519 108.094 38.6763C108.371 38.4007 108.649 38.2628 109.065 37.9872C109.481 37.7115 109.898 37.7115 110.314 37.7115C111.147 37.7115 111.84 37.9872 112.534 38.5385L111.702 39.5032Z" fill="white"/>
<path d="M121.137 37.8494V40.0545H123.496V37.8494H124.745V43.3622H123.496V41.1571H120.998V43.3622H119.75V37.8494H121.137Z" fill="white"/>
<path d="M135.707 37.8494L138.066 43.3622H136.678L136.262 42.2596H133.903L133.487 43.3622H132.099L134.319 37.8494H135.707ZM134.319 41.2949H135.846L135.152 39.0897H135.013L134.319 41.2949Z" fill="white"/>
<path d="M150.415 37.8494V43.3622H149.167L146.53 39.7789V43.3622H145.281V37.8494H146.391L149.167 41.5705V37.8494H150.415Z" fill="white"/>
<path d="M163.043 40.3301V42.9487C162.488 43.3622 161.655 43.6378 160.822 43.6378C160.267 43.6378 159.712 43.5 159.296 43.2244C158.88 42.9487 158.464 42.6731 158.186 42.2596C157.909 41.8462 157.77 41.2949 157.77 40.7436C157.77 40.3301 157.909 39.9167 158.047 39.641C158.186 39.2276 158.325 38.9519 158.602 38.6763C158.88 38.4007 159.157 38.2628 159.574 37.9872C159.99 37.7115 160.406 37.7115 160.822 37.7115C161.655 37.7115 162.349 37.9872 162.904 38.5385L162.21 39.3654C161.794 38.9519 161.378 38.8141 160.684 38.8141C160.129 38.8141 159.712 38.9519 159.435 39.2276C159.157 39.5032 158.88 39.9167 158.88 40.468C158.88 41.0192 159.019 41.4327 159.435 41.7083C159.851 41.984 160.129 42.1218 160.684 42.1218C161.1 42.1218 161.378 41.984 161.655 41.8462V41.0192H160.684V39.9167H163.043V40.3301Z" fill="white"/>
<path d="M174.698 37.8494V38.9519H171.785V40.0545H174.421V41.1571H171.785V42.3974H174.837V43.5H170.536V37.9872H174.698V37.8494Z" fill="white"/>
</g>
<defs>
<clipPath id="clip0_2828_17521">
<rect width="179" height="43" fill="white" transform="translate(0 0.5)"/>
</clipPath>
</defs>
</svg>
