<svg width="382" height="340" viewBox="0 0 382 340" fill="none" xmlns="http://www.w3.org/2000/svg">
<path d="M90.7354 180.475C41.1759 180.475 1 140.299 1 90.7393C1 41.1798 41.1759 1.00391 90.7354 1.00391" stroke="#252525" stroke-width="2"/>
<path d="M202.999 1.00194C252.559 1.00195 292.734 41.1778 292.734 90.7373C292.734 140.297 252.558 180.473 202.999 180.473" stroke="#252525" stroke-width="2"/>
<path d="M315.265 1.00194C364.824 1.00195 405 41.1778 405 90.7373C405 140.297 364.824 180.473 315.265 180.473" stroke="#252525" stroke-width="2"/>
<path d="M90.7344 159.09C128.484 159.09 159.086 128.488 159.086 90.7383C159.086 52.9888 128.484 22.3867 90.7344 22.3867" stroke="#252525" stroke-width="2"/>
<path d="M203 22.3866C165.25 22.3866 134.648 52.9887 134.648 90.7382C134.648 128.488 165.25 159.09 203 159.09" stroke="#252525" stroke-width="2"/>
<path d="M315.266 22.3866C277.516 22.3866 246.914 52.9887 246.914 90.7382C246.914 128.488 277.516 159.09 315.266 159.09" stroke="#252525" stroke-width="2"/>
<path d="M90.7344 46.8263C114.987 46.8263 134.647 66.4868 134.647 90.7393C134.647 114.992 114.987 134.652 90.7344 134.652" stroke="#252525" stroke-width="2"/>
<path d="M203 134.654C178.747 134.654 159.087 114.994 159.087 90.7412C159.087 66.4887 178.747 46.8281 203 46.8281" stroke="#252525" stroke-width="2"/>
<path d="M315.266 134.654C291.013 134.654 271.353 114.994 271.353 90.7412C271.353 66.4887 291.013 46.8281 315.266 46.8281" stroke="#252525" stroke-width="2"/>
<path d="M90.7354 338.475C41.1759 338.475 1 298.299 1 248.739C1 199.18 41.1759 159.004 90.7354 159.004" stroke="#252525" stroke-width="2"/>
<path d="M202.999 159.002C252.559 159.002 292.734 199.178 292.734 248.737C292.734 298.297 252.558 338.473 202.999 338.473" stroke="#252525" stroke-width="2"/>
<path d="M315.265 159.002C364.824 159.002 405 199.178 405 248.737C405 298.297 364.824 338.473 315.265 338.473" stroke="#252525" stroke-width="2"/>
<path d="M90.7344 317.09C128.484 317.09 159.086 286.488 159.086 248.738C159.086 210.989 128.484 180.387 90.7344 180.387" stroke="#252525" stroke-width="2"/>
<path d="M203 180.387C165.25 180.387 134.648 210.989 134.648 248.738C134.648 286.488 165.25 317.09 203 317.09" stroke="#252525" stroke-width="2"/>
<path d="M315.266 180.387C277.516 180.387 246.914 210.989 246.914 248.738C246.914 286.488 277.516 317.09 315.266 317.09" stroke="#252525" stroke-width="2"/>
<path d="M90.7344 204.826C114.987 204.826 134.647 224.487 134.647 248.739C134.647 272.992 114.987 292.652 90.7344 292.652" stroke="#252525" stroke-width="2"/>
<path d="M203 292.654C178.747 292.654 159.087 272.994 159.087 248.741C159.087 224.489 178.747 204.828 203 204.828" stroke="#252525" stroke-width="2"/>
<path d="M315.266 292.654C291.013 292.654 271.353 272.994 271.353 248.741C271.353 224.489 291.013 204.828 315.266 204.828" stroke="#252525" stroke-width="2"/>
</svg>
