<svg width="406" height="340" viewBox="0 0 406 340" fill="none" xmlns="http://www.w3.org/2000/svg">
<path d="M90.7354 180.473C41.1759 180.473 1 140.297 1 90.7373C1 41.1778 41.1759 1.00195 90.7354 1.00195" stroke="white" stroke-width="2"/>
<path d="M202.999 0.999989C252.559 0.999993 292.734 41.1759 292.734 90.7353C292.734 140.295 252.558 180.471 202.999 180.471" stroke="white" stroke-width="2"/>
<path d="M315.265 0.999989C364.824 0.999993 405 41.1759 405 90.7353C405 140.295 364.824 180.471 315.265 180.471" stroke="white" stroke-width="2"/>
<path d="M90.7344 159.088C128.484 159.088 159.086 128.486 159.086 90.7364C159.086 52.9868 128.484 22.3848 90.7344 22.3848" stroke="white" stroke-width="2"/>
<path d="M203 22.3847C165.25 22.3847 134.648 52.9867 134.648 90.7363C134.648 128.486 165.25 159.088 203 159.088" stroke="white" stroke-width="2"/>
<path d="M315.266 22.3847C277.516 22.3847 246.914 52.9867 246.914 90.7363C246.914 128.486 277.516 159.088 315.266 159.088" stroke="white" stroke-width="2"/>
<path d="M90.7344 46.8243C114.987 46.8243 134.647 66.4848 134.647 90.7373C134.647 114.99 114.987 134.65 90.7344 134.65" stroke="white" stroke-width="2"/>
<path d="M203 134.652C178.747 134.652 159.087 114.992 159.087 90.7392C159.087 66.4867 178.747 46.8262 203 46.8262" stroke="white" stroke-width="2"/>
<path d="M315.266 134.652C291.013 134.652 271.353 114.992 271.353 90.7392C271.353 66.4867 291.013 46.8262 315.266 46.8262" stroke="white" stroke-width="2"/>
<path d="M90.7354 338.473C41.1759 338.473 1 298.297 1 248.737C1 199.178 41.1759 159.002 90.7354 159.002" stroke="white" stroke-width="2"/>
<path d="M202.999 159C252.559 159 292.734 199.176 292.734 248.735C292.734 298.295 252.558 338.471 202.999 338.471" stroke="white" stroke-width="2"/>
<path d="M315.265 159C364.824 159 405 199.176 405 248.735C405 298.295 364.824 338.471 315.265 338.471" stroke="white" stroke-width="2"/>
<path d="M90.7344 317.088C128.484 317.088 159.086 286.486 159.086 248.736C159.086 210.987 128.484 180.385 90.7344 180.385" stroke="white" stroke-width="2"/>
<path d="M203 180.385C165.25 180.385 134.648 210.987 134.648 248.736C134.648 286.486 165.25 317.088 203 317.088" stroke="white" stroke-width="2"/>
<path d="M315.266 180.385C277.516 180.385 246.914 210.987 246.914 248.736C246.914 286.486 277.516 317.088 315.266 317.088" stroke="white" stroke-width="2"/>
<path d="M90.7344 204.824C114.987 204.824 134.647 224.485 134.647 248.737C134.647 272.99 114.987 292.65 90.7344 292.65" stroke="white" stroke-width="2"/>
<path d="M203 292.652C178.747 292.652 159.087 272.992 159.087 248.739C159.087 224.487 178.747 204.826 203 204.826" stroke="white" stroke-width="2"/>
<path d="M315.266 292.652C291.013 292.652 271.353 272.992 271.353 248.739C271.353 224.487 291.013 204.826 315.266 204.826" stroke="white" stroke-width="2"/>
</svg>
