<svg width="478" height="298" viewBox="0 0 478 298" fill="none" xmlns="http://www.w3.org/2000/svg">
<path d="M240.5 1.00003L335 95.5L240.5 190L146 95.5L199.061 42.4386" stroke="#252525" stroke-width="2" stroke-miterlimit="10"/>
<path d="M96.5 1.00003L191 95.5L96.5 190L1.99997 95.5L55.0614 42.4386" stroke="#252525" stroke-width="2" stroke-miterlimit="10"/>
<path d="M381.5 1.00003L476 95.5L381.5 190L287 95.5L340.061 42.4386" stroke="#252525" stroke-width="2" stroke-miterlimit="10"/>
<path d="M334.417 201.831L240.246 107.66L146.076 201.831L240.246 296.001L334.417 201.831Z" stroke="#252525" stroke-width="2" stroke-miterlimit="10"/>
<path d="M190.417 201.831L96.2461 107.66L2.07554 201.831L96.246 296.001L190.417 201.831Z" stroke="#252525" stroke-width="2" stroke-miterlimit="10"/>
<path d="M475.417 201.831L381.246 107.66L287.076 201.831L381.246 296.001L475.417 201.831Z" stroke="#252525" stroke-width="2" stroke-miterlimit="10"/>
</svg>
