<svg width="503" height="503" viewBox="0 0 503 503" fill="none" xmlns="http://www.w3.org/2000/svg">
<path d="M376.055 127.352L127.351 376.055M376.055 127.352L399.279 150.576M376.055 127.352L351.067 102.364M127.351 376.055L102.364 351.067M127.351 376.055L150.576 399.279M376.055 376.055L127.351 127.352M376.055 376.055L346.587 405.522M376.055 376.055L396.387 355.722M127.351 127.352L97.8843 156.819M127.351 127.352L146.21 108.493M399.279 150.576L500.406 251.703L396.387 355.722M399.279 150.576L345.059 204.795M345.059 204.795L393.271 253.007L343.471 302.807M345.059 204.795L296.847 156.583M351.067 102.364L251.703 3L146.21 108.493M351.067 102.364L296.847 156.583M296.847 156.583L248.047 107.783L196.774 159.056M152.458 300.973L103.658 252.173L148.448 207.383M152.458 300.973L102.364 351.067M152.458 300.973L200.67 349.185M102.364 351.067L2.99987 251.703L97.8843 156.819M200.67 349.185L248.882 397.397L293.672 352.606M200.67 349.185L150.576 399.279M150.576 399.279L251.703 500.406L346.587 405.522M97.8843 156.819L148.448 207.383M148.448 207.383L196.774 159.056M293.672 352.606L346.587 405.522M293.672 352.606L343.471 302.807M146.21 108.493L196.774 159.056M343.471 302.807L396.387 355.722M441.544 249.418L251.048 58.9222L57.154 252.816L247.65 443.312L441.544 249.418Z" stroke="#252525" stroke-width="3"/>
</svg>
