<svg width="502" height="463" viewBox="0 0 502 463" fill="none" xmlns="http://www.w3.org/2000/svg">
<path opacity="0.0416667" d="M123.459 435.336C137.793 418.373 140.287 399.584 134.306 382.043C128.35 364.575 115.636 349.775 102.936 337.674C92.5675 327.796 79.5055 321.958 68.5332 312.984C55.6606 302.456 61.5707 285.725 72.8123 270.322C94.021 241.261 122.41 228.065 153.828 227.764C176.58 227.546 200.836 232.398 213.654 249.428C224.679 264.076 221.599 287.925 203.531 303.621C196.162 310.022 183.503 316.103 175.594 319.918C154.667 330.013 133.443 339.203 112.45 349.087C105.007 352.592 97.0965 357.142 89.2647 358.622" stroke="#252525" stroke-opacity="0.7" stroke-width="1.95833" stroke-linecap="round"/>
<path opacity="0.0833333" d="M98.1473 406.394C115.262 392.134 121.025 374.044 118.217 355.73C115.421 337.493 105.494 320.727 95.1046 306.622C86.6236 295.108 74.7764 287.114 65.5407 276.388C54.7056 263.804 63.475 248.329 77.2658 235.075C103.284 210.07 133.588 201.933 164.608 207.024C187.072 210.711 210.126 219.653 219.763 238.635C228.052 254.962 220.82 277.939 200.248 290.31C191.859 295.355 178.311 299.178 169.845 301.582C147.442 307.942 124.905 313.36 102.474 319.502C94.5217 321.679 85.9235 324.808 77.9437 324.923" stroke="#252525" stroke-opacity="0.7" stroke-width="1.91667" stroke-linecap="round"/>
<path opacity="0.125" d="M77.871 373.855C97.2235 362.705 106.084 345.831 106.551 327.269C107.015 308.785 100.204 290.533 92.4701 274.829C86.1562 262.01 75.9097 252.09 68.7144 239.919C60.273 225.641 71.6296 211.863 87.535 201.138C117.542 180.903 148.792 178.056 178.414 188.391C199.865 195.875 220.97 208.649 227.105 229.04C232.382 246.579 221.214 268.026 198.793 276.719C189.65 280.264 175.647 281.72 166.894 282.644C143.73 285.09 120.602 286.582 97.4495 288.807C89.2415 289.596 80.2305 291.213 72.3591 289.961" stroke="#252525" stroke-opacity="0.7" stroke-width="1.875" stroke-linecap="round"/>
<path opacity="0.166667" d="M63.1846 338.636C84.1715 330.905 95.8668 315.729 99.6161 297.454C103.35 279.255 99.8953 260.048 95.0819 243.203C91.1525 229.453 82.8459 217.9 77.9356 204.64C72.1751 189.084 85.7735 177.394 103.299 169.496C136.363 154.597 167.565 157.102 194.83 172.364C214.575 183.417 233.042 199.642 235.453 220.848C237.527 239.089 222.754 258.395 199.189 263.174C189.579 265.123 175.565 264.178 166.803 263.601C143.616 262.076 120.632 259.614 97.4951 257.872C89.2925 257.255 80.1542 257.32 72.644 254.742" stroke="#252525" stroke-opacity="0.7" stroke-width="1.83333" stroke-linecap="round"/>
<path opacity="0.208333" d="M54.4692 301.707C76.4425 297.599 90.63 284.551 97.5751 267.094C104.491 249.71 104.535 230.113 102.823 212.626C101.425 198.35 95.3402 185.51 92.8925 171.556C90.0208 155.184 105.453 145.908 124.059 141.051C159.163 131.887 189.33 139.637 213.353 159.35C230.751 173.627 245.97 192.806 244.545 214.206C243.319 232.613 225.375 249.229 201.399 249.979C191.622 250.285 178.041 246.983 169.547 244.932C147.069 239.506 124.958 233.186 102.569 227.554C94.631 225.557 85.6533 224.078 78.7454 220.258" stroke="#252525" stroke-opacity="0.7" stroke-width="1.79167" stroke-linecap="round"/>
<path opacity="0.25" d="M51.9131 264.093C74.2006 263.701 90.4674 253.151 100.428 237.022C110.348 220.961 113.928 201.559 115.405 183.952C116.612 169.579 112.962 155.844 113.081 141.613C113.22 124.917 130.026 118.312 149.148 116.613C185.224 113.409 213.405 126.131 233.403 149.676C247.885 166.726 259.346 188.269 254.087 209.225C249.563 227.252 228.968 240.707 205.323 237.439C195.681 236.106 182.96 230.564 175.001 227.112C153.94 217.977 133.4 208.019 112.462 198.695C105.039 195.39 96.5025 192.423 90.4185 187.483" stroke="#252525" stroke-opacity="0.7" stroke-width="1.75" stroke-linecap="round"/>
<path opacity="0.291667" d="M55.52 226.832C77.446 230.134 95.3204 222.379 108.029 208.054C120.684 193.79 127.733 175.167 132.392 157.974C136.196 143.939 135.122 129.732 137.834 115.657C141.015 99.1447 158.698 95.3854 177.758 96.8695C213.717 99.6695 239.031 116.936 254.347 143.565C265.439 162.849 272.749 186.082 263.77 205.967C256.047 223.071 233.399 232.986 210.809 225.835C201.597 222.919 190.134 215.323 182.96 210.587C163.974 198.052 145.648 184.789 126.817 172.088C120.141 167.585 112.312 163.234 107.247 157.334" stroke="#252525" stroke-opacity="0.7" stroke-width="1.70833" stroke-linecap="round"/>
<path opacity="0.333333" d="M65.1024 190.941C86.0081 197.804 104.974 193.06 120.08 180.967C135.123 168.924 145.467 151.648 153.204 135.396C159.519 122.129 161.081 107.892 166.332 94.4067C172.493 78.5859 190.536 77.765 208.964 82.3593C243.731 91.0271 265.39 112.267 275.516 141.133C282.85 162.038 285.746 186.231 273.275 204.439C262.549 220.101 238.502 226.201 217.654 215.419C209.152 211.022 199.302 201.624 193.135 195.76C176.813 180.241 161.274 164.11 145.135 148.451C139.414 142.9 132.533 137.309 128.649 130.64" stroke="#252525" stroke-opacity="0.7" stroke-width="1.66667" stroke-linecap="round"/>
<path opacity="0.375" d="M80.3007 157.375C99.5642 167.561 119.075 165.956 136.157 156.46C153.167 147.003 166.533 131.609 177.147 116.802C185.812 104.714 189.986 90.8947 197.645 78.4185C206.631 63.7816 224.508 65.9057 241.758 73.4455C274.303 87.6702 291.64 112.19 296.234 142.373C299.561 164.231 297.918 188.617 282.291 204.587C268.85 218.324 244.096 220.442 225.616 206.391C218.08 200.662 210.148 189.77 205.177 182.969C192.022 164.973 179.749 146.498 166.8 128.394C162.209 121.976 156.487 115.329 153.908 108.105" stroke="#252525" stroke-opacity="0.7" stroke-width="1.625" stroke-linecap="round"/>
<path opacity="0.416667" d="M100.588 127.03C117.642 140.201 137.137 141.776 155.713 135.168C174.211 128.589 190.23 115.558 203.432 102.663C214.209 92.1362 220.892 79.1727 230.753 68.0992C242.321 55.108 259.514 60.0981 275.08 70.3318C304.449 89.6389 316.937 116.645 315.831 147.177C315.031 169.288 308.87 193.091 290.52 206.323C274.735 217.704 249.986 215.787 234.423 198.929C228.076 192.054 222.302 180.02 218.678 172.504C209.09 152.613 200.458 132.393 191.092 112.429C187.771 105.352 183.38 97.8657 182.189 90.318" stroke="#252525" stroke-opacity="0.7" stroke-width="1.58333" stroke-linecap="round"/>
<path opacity="0.458333" d="M125.276 100.685C139.626 116.416 158.546 121.118 178.087 117.611C197.547 114.118 215.766 103.87 231.185 93.2997C243.772 84.6708 252.777 72.9795 264.563 63.6639C278.389 52.735 294.402 60.4295 307.835 73.0271C333.176 96.794 340.444 125.417 333.656 155.318C328.74 176.972 318.226 199.425 297.67 209.495C279.989 218.157 255.955 212.269 243.762 193.146C238.79 185.347 235.345 172.559 233.177 164.569C227.438 143.423 222.705 122.108 217.2 100.927C215.248 93.4175 212.317 85.333 212.553 77.7049" stroke="#252525" stroke-opacity="0.7" stroke-width="1.54167" stroke-linecap="round"/>
<path opacity="0.5" d="M153.569 78.9818C164.806 96.7759 182.609 104.464 202.555 104.179C222.418 103.895 242.315 96.7676 259.507 88.8695C273.542 82.4219 284.611 72.383 297.982 65.1305C313.668 56.622 328.044 66.7818 338.959 81.3454C359.552 108.821 361.395 138.146 349.123 166.452C340.236 186.95 325.673 207.328 303.503 213.903C284.433 219.557 261.801 209.875 253.326 189.095C249.87 180.621 248.85 167.487 248.198 159.278C246.471 137.554 245.769 115.827 244.279 94.1053C243.751 86.4045 242.363 77.9796 244.017 70.5163" stroke="#252525" stroke-opacity="0.7" stroke-width="1.5" stroke-linecap="round"/>
<path opacity="0.541667" d="M184.539 62.4381C192.353 81.739 208.532 92.1857 228.307 95.1535C248 98.1089 268.995 94.3498 287.457 89.3938C302.529 85.348 315.334 77.2933 329.899 72.3492C346.987 66.5489 359.319 78.8649 367.413 94.9413C382.682 125.272 379.07 154.365 361.69 180.159C349.104 198.839 330.928 216.476 307.788 219.322C287.884 221.769 267.3 208.578 262.771 186.795C260.924 177.912 262.35 164.85 263.227 156.684C265.545 135.073 268.877 113.625 271.43 92.0554C272.335 84.4083 272.524 75.9103 275.542 68.8516" stroke="#252525" stroke-opacity="0.7" stroke-width="1.45833" stroke-linecap="round"/>
<path opacity="0.583333" d="M217.217 51.3877C221.403 71.599 235.496 84.4995 254.526 90.6557C273.475 96.7861 294.949 96.5451 314.135 94.7147C329.798 93.2205 343.955 87.4226 359.282 84.9642C377.262 82.08 387.205 96.1826 392.26 113.278C401.798 145.529 392.873 173.469 370.926 195.914C355.033 212.168 333.797 226.482 310.369 225.475C290.216 224.609 272.267 208.294 271.789 186.187C271.594 177.172 275.408 164.596 277.777 156.731C284.046 135.918 291.288 115.43 297.781 94.6945C300.083 87.3434 301.833 79.0402 306.118 72.6128" stroke="#252525" stroke-opacity="0.7" stroke-width="1.41667" stroke-linecap="round"/>
<path opacity="0.625" d="M250.572 46.0068C251.036 66.5101 262.645 81.4899 280.37 90.6772C298.022 99.826 319.333 103.148 338.669 104.534C354.454 105.665 369.531 102.328 385.158 102.458C403.492 102.611 410.771 118.081 412.664 135.674C416.236 168.866 402.307 194.771 376.483 213.133C357.782 226.43 334.143 236.942 311.123 232.072C291.321 227.883 276.516 208.918 280.069 187.171C281.518 178.303 287.585 166.609 291.364 159.293C301.364 139.932 312.268 121.051 322.475 101.804C326.094 94.9802 329.339 87.132 334.754 81.5425" stroke="#252525" stroke-opacity="0.7" stroke-width="1.375" stroke-linecap="round"/>
<path opacity="0.666667" d="M283.558 46.2944C280.321 66.4682 289.117 83.0938 305.016 95.0659C320.847 106.988 341.354 113.812 360.254 118.407C375.682 122.158 391.215 121.411 406.668 124.155C424.797 127.374 429.217 143.755 427.92 161.315C425.473 194.445 407.009 217.505 378.123 231.179C357.205 241.082 331.899 247.427 309.979 238.8C291.124 231.38 279.88 210.313 287.32 189.593C290.354 181.144 298.471 170.697 303.532 164.159C316.926 146.857 331.129 130.176 344.708 113.02C349.522 106.938 354.151 99.7886 360.522 95.2166" stroke="#252525" stroke-opacity="0.7" stroke-width="1.33333" stroke-linecap="round"/>
<path opacity="0.708333" d="M315.179 52.082C308.373 71.3204 314.109 89.1122 327.706 103.54C341.245 117.908 360.322 128.065 378.206 135.765C392.806 142.051 408.312 143.943 423.116 149.245C440.484 155.465 441.932 172.278 437.513 189.281C429.175 221.36 406.783 240.856 375.754 249.386C353.283 255.563 327.105 257.51 306.951 245.346C289.615 234.883 282.25 212.321 293.313 193.257C297.824 185.483 307.723 176.61 313.9 171.053C330.245 156.346 347.28 142.387 363.783 127.855C369.633 122.704 375.491 116.474 382.613 113.067" stroke="#252525" stroke-opacity="0.7" stroke-width="1.29167" stroke-linecap="round"/>
<path opacity="0.75" d="M344.448 63.0221C334.312 80.7533 336.83 99.1993 347.714 115.68C358.552 132.092 375.61 145.313 391.925 155.918C405.243 164.576 420.235 169.073 433.93 176.8C449.996 185.864 448.449 202.618 441.067 218.561C427.142 248.639 401.553 263.969 369.369 267.063C346.062 269.303 319.84 266.758 302.072 251.383C286.79 238.159 283.506 214.752 297.82 197.917C303.657 191.051 315.014 184.024 322.105 179.619C340.868 167.962 360.181 157.156 379.068 145.697C385.764 141.634 392.659 136.515 400.302 134.382" stroke="#252525" stroke-opacity="0.7" stroke-width="1.25" stroke-linecap="round"/>
<path opacity="0.791667" d="M370.493 78.6314C357.363 94.3343 356.597 112.905 364.433 130.974C372.237 148.967 386.741 164.886 400.973 178.106C412.591 188.897 426.595 195.885 438.749 205.825C453.007 217.487 448.526 233.698 438.431 248.114C419.385 275.311 391.428 286.009 359.119 283.546C335.721 281.762 310.29 274.775 295.465 256.616C282.713 240.997 283.599 217.417 300.693 203.31C307.664 197.557 320.112 192.589 327.887 189.47C348.46 181.216 369.425 173.893 390.087 165.855C397.411 163.005 405.118 159.15 413.038 158.359" stroke="#252525" stroke-opacity="0.7" stroke-width="1.20833" stroke-linecap="round"/>
<path opacity="0.833333" d="M392.526 98.2823C376.827 111.502 372.803 129.665 377.344 148.807C381.865 167.869 393.352 186.036 405.047 201.496C414.594 214.117 427.161 223.4 437.385 235.274C449.379 249.204 442.112 264.407 429.629 276.878C406.079 300.407 376.653 306.157 345.256 298.196C322.519 292.431 298.694 281.191 287.285 260.763C277.471 243.192 282.493 220.116 301.817 209.147C309.698 204.674 322.835 201.912 331.043 200.171C352.765 195.564 374.708 191.942 396.478 187.563C404.196 186.01 412.467 183.533 420.408 184.111" stroke="#252525" stroke-opacity="0.7" stroke-width="1.16667" stroke-linecap="round"/>
<path opacity="0.875" d="M409.904 121.223C392.134 131.584 384.975 148.819 386.064 168.485C387.149 188.069 395.243 207.959 404.017 225.215C411.18 239.302 421.902 250.611 429.863 264.076C439.202 279.873 429.374 293.633 414.899 303.805C387.59 322.997 357.637 323.641 328.164 310.417C306.82 300.84 285.373 285.675 277.754 263.566C271.202 244.549 280.21 222.636 301.148 215.116C309.687 212.049 323.094 211.57 331.473 211.255C353.647 210.423 375.866 210.6 398.047 210.001C405.911 209.788 414.482 208.758 422.19 210.686" stroke="#252525" stroke-opacity="0.7" stroke-width="1.125" stroke-linecap="round"/>
<path opacity="0.916667" d="M422.122 146.617C402.836 153.834 392.751 169.65 390.334 189.27C387.928 208.809 392.349 229.843 397.905 248.39C402.442 263.53 410.964 276.529 416.394 291.191C422.764 308.392 410.674 320.318 394.658 327.91C364.44 342.231 334.916 337.772 308.321 319.69C289.061 306.594 270.689 287.959 267.129 264.814C264.066 244.905 276.796 224.781 298.689 220.91C307.616 219.332 320.866 221.139 329.149 222.254C351.069 225.203 372.855 229.157 394.741 232.338C402.5 233.466 411.098 233.905 418.325 237.122" stroke="#252525" stroke-opacity="0.7" stroke-width="1.08333" stroke-linecap="round"/>
<path opacity="0.958333" d="M428.837 173.561C408.633 177.446 395.916 191.391 390.039 210.395C384.187 229.319 384.764 250.876 386.9 270.163C388.643 285.908 394.679 300.208 397.384 315.63C400.558 333.723 386.57 343.482 369.505 348.289C337.309 357.358 309.149 347.963 286.296 325.583C269.747 309.377 255.059 287.839 255.702 264.338C256.256 244.125 272.338 226.363 294.501 226.229C303.539 226.175 316.211 230.199 324.136 232.7C345.107 239.317 365.768 246.907 386.665 253.748C394.073 256.173 402.427 258.06 408.94 262.461" stroke="#252525" stroke-opacity="0.7" stroke-width="1.04167" stroke-linecap="round"/>
<path d="M429.876 201.114C409.371 201.581 394.39 213.259 385.201 231.088C376.051 248.843 372.727 270.279 371.341 289.728C370.209 305.605 373.545 320.77 373.414 336.489C373.26 354.93 357.789 362.251 340.194 364.157C307 367.751 281.094 353.743 262.732 327.768C249.434 308.958 238.923 285.182 243.794 262.027C247.984 242.11 266.952 227.217 288.7 230.79C297.569 232.247 309.263 238.349 316.58 242.149C335.942 252.206 354.823 263.174 374.072 273.44C380.896 277.079 388.744 280.343 394.334 285.79" stroke="#252525" stroke-opacity="0.7" stroke-linecap="round"/>
</svg>
