<svg width="847" height="40" viewBox="0 0 847 40" fill="none" xmlns="http://www.w3.org/2000/svg">
<path d="M150 12.0002L149.814 13.4887L149.907 13.5002H150V12.0002ZM846.061 13.0609C846.646 12.4751 846.646 11.5254 846.061 10.9396L836.515 1.39363C835.929 0.807846 834.979 0.807846 834.393 1.39363C833.808 1.97942 833.808 2.92917 834.393 3.51495L842.879 12.0002L834.393 20.4855C833.808 21.0713 833.808 22.021 834.393 22.6068C834.979 23.1926 835.929 23.1926 836.515 22.6068L846.061 13.0609ZM83.5 23.5003L83.9819 24.9208L83.5 23.5003ZM150 13.5002H845V10.5002H150V13.5002ZM150.186 10.5118C144.639 9.81839 134.845 10.346 123.017 12.206C111.148 14.0723 97.106 17.3 83.0181 22.0799L83.9819 24.9208C97.894 20.2006 111.768 17.0116 123.483 15.1695C135.238 13.3211 144.695 12.8487 149.814 13.4887L150.186 10.5118ZM83.0181 22.0799C75.9003 24.4948 60.4905 28.1042 44.1876 31.0509C27.873 33.9997 10.8691 36.2467 0.535704 36.0007L0.464296 38.9998C11.1309 39.2538 28.3995 36.9531 44.7212 34.003C61.0545 31.0509 76.6447 27.4103 83.9819 24.9208L83.0181 22.0799Z" fill="white"/>
</svg>
