<svg width="270" height="331" viewBox="0 0 270 331" fill="none" xmlns="http://www.w3.org/2000/svg">
<path d="M53.418 1L86.5523 38.9293L53.418 76.8585" stroke="white" stroke-width="2" stroke-miterlimit="10"/>
<path d="M53.418 192.875L86.5646 230.793L53.418 268.712" stroke="white" stroke-width="2" stroke-miterlimit="10"/>
<path d="M215.25 177.521L182.437 139.315L215.25 99.1508" stroke="white" stroke-width="2" stroke-miterlimit="10"/>
<path d="M139.57 1L172.705 38.9293L139.57 76.8585" stroke="white" stroke-width="2" stroke-miterlimit="10"/>
<path d="M139.57 192.875L172.717 230.793L139.57 268.712" stroke="white" stroke-width="2" stroke-miterlimit="10"/>
<path d="M129.102 176.768L96.2881 138.561L129.102 98.1514" stroke="white" stroke-width="2" stroke-miterlimit="10"/>
<path d="M225.723 1L258.857 38.9293L225.723 76.8585" stroke="white" stroke-width="2" stroke-miterlimit="10"/>
<path d="M225.723 192.875L258.869 230.793L225.723 268.712" stroke="white" stroke-width="2" stroke-miterlimit="10"/>
<path d="M42.957 176.019L10.1436 137.812L42.957 96.1557" stroke="white" stroke-width="2" stroke-miterlimit="10"/>
<path d="M86 39.1899H0" stroke="white" stroke-width="2"/>
<path d="M86 231.065H0" stroke="white" stroke-width="2"/>
<path d="M182.852 139.254L269 140.007" stroke="white" stroke-width="2"/>
<path d="M172 39.1899H86" stroke="white" stroke-width="2"/>
<path d="M172 231.065H86" stroke="white" stroke-width="2"/>
<path d="M96.7075 138.5L182.855 139.253" stroke="white" stroke-width="2"/>
<path d="M258 39.1899H172" stroke="white" stroke-width="2"/>
<path d="M258 231.065H172" stroke="white" stroke-width="2"/>
<path d="M10.5551 137.751L96.7031 138.504" stroke="white" stroke-width="2"/>
<path d="M130 40.1892L55 138.125" stroke="white" stroke-width="2"/>
<path d="M130 232.064L55 330" stroke="white" stroke-width="2"/>
<path d="M220 40.1892L144 138.125" stroke="white" stroke-width="2"/>
<path d="M220 232.064L144 330" stroke="white" stroke-width="2"/>
</svg>
