<svg width="65" height="32" viewBox="0 0 65 32" fill="none" xmlns="http://www.w3.org/2000/svg">
<path d="M31.5019 32L31.0029 30.5948C32.2921 27.6141 33.7892 24.3779 35.4942 20.8862C37.2409 17.3945 39.0915 13.8603 41.0461 10.2834C43.0006 6.66401 44.976 3.23619 46.9722 0H65C63.5445 3.4491 62.1305 7.06853 60.7582 10.8583C59.3858 14.648 58.0758 18.3739 56.8282 22.0359C55.5806 25.6554 54.3954 28.9767 53.2726 32H31.5019ZM0.6238 32L0 30.5948C1.28919 27.6141 2.78631 24.3779 4.49136 20.8862C6.238 17.3945 8.1094 13.8603 10.1056 10.2834C12.1017 6.66401 14.0979 3.23619 16.094 0H34.0595C32.9782 2.59747 31.897 5.3014 30.8157 8.11178C29.7761 10.8796 28.7572 13.6687 27.7591 16.479C26.761 19.2894 25.8045 22.0146 24.8896 24.6547C23.9747 27.2947 23.1222 29.7432 22.3321 32H0.6238Z" fill="#A564A5"/>
</svg>
