<svg width="316" height="233" viewBox="0 0 316 233" fill="none" xmlns="http://www.w3.org/2000/svg">
<path d="M116.5 232C52.7111 232 1 180.289 1 116.5C1 52.7111 52.7111 1 116.5 1" stroke="#252525" stroke-width="2"/>
<path d="M261 1.00001C324.789 1.00001 376.5 52.7111 376.5 116.5C376.5 180.289 324.789 232 261 232" stroke="#252525" stroke-width="2"/>
<path d="M116.5 204.477C165.088 204.477 204.477 165.088 204.477 116.5C204.477 67.9119 165.088 28.5234 116.5 28.5234" stroke="#252525" stroke-width="2"/>
<path d="M261 28.5234C212.412 28.5234 173.023 67.9118 173.023 116.5C173.023 165.088 212.412 204.477 261 204.477" stroke="#252525" stroke-width="2"/>
<path d="M116.5 59.9809C147.716 59.9809 173.021 85.2863 173.021 116.502C173.021 147.718 147.716 173.023 116.5 173.023" stroke="#252525" stroke-width="2"/>
</svg>
